<?xml version="1.0" encoding="UTF-8" standalone="no"?>
<svg
   xmlns:dc="http://purl.org/dc/elements/1.1/"
   xmlns:cc="http://creativecommons.org/ns#"
   xmlns:rdf="http://www.w3.org/1999/02/22-rdf-syntax-ns#"
   xmlns:svg="http://www.w3.org/2000/svg"
   xmlns="http://www.w3.org/2000/svg"
   xmlns:xlink="http://www.w3.org/1999/xlink"
   id="svg2610"
   viewBox="0 0 28.046024 4.7100003"
   height="8.2768774mm"
   width="49.285244mm"
   version="1.2">
  <metadata
     id="metadata2616">
    <rdf:RDF>
      <cc:Work
         rdf:about="">
        <dc:format>image/svg+xml</dc:format>
        <dc:type
           rdf:resource="http://purl.org/dc/dcmitype/StillImage" />
        <dc:title></dc:title>
      </cc:Work>
    </rdf:RDF>
  </metadata>
  <defs
     id="defs2614" />
  <!-- Page: 1/1 -->
  <text
     y="-1"
     x="0.00071212446"
     style="font-size:2.20009995px;font-family:'Century Schoolbook L';text-anchor:start;fill:currentColor"
     id="text2552"
     font-size="2.2001">
    <tspan
       id="tspan2550" />
  </text>
  <rect
     style="fill:currentColor"
     id="rect2554"
     ry="0.0000"
     height="2.0999999"
     width="0.19"
     y="2.3800001"
     x="27.855312" />
  <line
     style="stroke:currentColor;stroke-width:0.1;stroke-linecap:round;stroke-linejoin:round"
     id="line2556"
     y2="3.4300001"
     x2="27.995312"
     y1="3.4300001"
     x1="0.050712124" />
  <a
     transform="translate(-5.6898879,-3.8453)"
     id="a2560"
     xlink:href="textedit:///Users/jyang/Documents/GitHub/dstyge/notation/dstyge_bassdrum_perc.ly:14:11:12"
     style="color:inherit">
    <path
       style="fill:currentColor"
       id="path2558"
       d="m 220,138 c 56,0 109,-29 109,-91 0,-72 -56,-121 -103,-149 -36,-21 -76,-36 -117,-36 -56,0 -109,29 -109,91 0,72 56,121 103,149 36,21 76,36 117,36 z"
       transform="matrix(0.004,0,0,-0.004,14.8087,7.2753)" />
  </a>
  <rect
     style="fill:currentColor"
     id="rect2562"
     ry="0.039999999"
     height="3.0021999"
     width="0.13"
     y="0.23999994"
     x="10.305012" />
  <a
     transform="translate(-5.6898879,-3.8453)"
     id="a2566"
     xlink:href="textedit:///Users/jyang/Documents/GitHub/dstyge/notation/dstyge_bassdrum_perc.ly:14:16:17"
     style="color:inherit">
    <path
       style="fill:currentColor"
       id="path2564"
       d="M 72,-250 189,76 C 155,64 120,54 84,54 38,54 -3,87 -3,133 c 0,40 33,72 73,72 25,0 48,-15 56,-39 10,-28 6,-59 35,-59 16,0 54,48 61,63 6,12 23,12 28,0 L 127,-250 c -8,-7 -17,-10 -27,-10 -10,0 -20,3 -28,10 z"
       transform="matrix(0.004,0,0,-0.004,17.3249,7.2753)" />
  </a>
  <path
     style="fill:currentColor;stroke-width:0.004"
     id="path2568"
     d="m 13.085012,2.93 c 0,-0.124 0.1,-0.224 0.224,-0.224 0.124,0 0.224,0.1 0.224,0.224 0,0.124 -0.1,0.224 -0.224,0.224 -0.124,0 -0.224,-0.1 -0.224,-0.224 z" />
  <a
     transform="translate(-5.6898879,-3.8453)"
     id="a2572"
     xlink:href="textedit:///Users/jyang/Documents/GitHub/dstyge/notation/dstyge_bassdrum_perc.ly:14:20:21"
     style="color:inherit">
    <path
       style="fill:currentColor"
       id="path2570"
       d="m 220,138 c 56,0 109,-29 109,-91 0,-72 -56,-121 -103,-149 -36,-21 -76,-36 -117,-36 -56,0 -109,29 -109,91 0,72 56,121 103,149 36,21 76,36 117,36 z"
       transform="matrix(0.004,0,0,-0.004,21.4268,7.2753)" />
  </a>
  <rect
     style="fill:currentColor"
     id="rect2574"
     ry="0.039999999"
     height="3.1872001"
     width="0.13"
     y="0.055"
     x="16.923113" />
  <path
     style="fill:currentColor;stroke-width:0.004"
     id="path2576"
     d="m 17.053112,0.095 c 0,0.712 0.812,1.168 0.812,1.88 0,0.132 -0.036,0.26 -0.092,0.38 0.072,0.148 0.116,0.3 0.116,0.468 0,0.252 -0.064,0.5 -0.168,0.732 -0.02,0.032 -0.048,0.048 -0.076,0.048 -0.052,0 -0.104,-0.044 -0.092,-0.108 0.104,-0.208 0.168,-0.44 0.168,-0.672 0,-0.388 -0.38,-0.764 -0.668,-1.028 v 0.3 h -0.064 v -2 z m 0.612,2.068 c 0.02,-0.06 0.028,-0.124 0.028,-0.188 0,-0.384 -0.364,-0.76 -0.64,-1.028 0,0.472 0.364,0.824 0.612,1.216 z" />
  <a
     transform="translate(-5.6898879,-3.8453)"
     id="a2580"
     xlink:href="textedit:///Users/jyang/Documents/GitHub/dstyge/notation/dstyge_bassdrum_perc.ly:14:25:26"
     style="color:inherit">
    <path
       style="fill:currentColor"
       id="path2578"
       d="m 220,138 c 56,0 109,-29 109,-91 0,-72 -56,-121 -103,-149 -36,-21 -76,-36 -117,-36 -56,0 -109,29 -109,91 0,72 56,121 103,149 36,21 76,36 117,36 z"
       transform="matrix(0.004,0,0,-0.004,24.079,7.2753)" />
  </a>
  <rect
     style="fill:currentColor"
     id="rect2582"
     ry="0.039999999"
     height="3.1454999"
     width="0.13"
     y="0.096699886"
     x="19.575312" />
  <polygon
     style="fill:currentColor;stroke:currentColor;stroke-width:0.08;stroke-linecap:round;stroke-linejoin:round"
     id="polygon2584"
     points="0.04,0.2 0.04,-0.2 4.5081,-0.2 4.5081,0.2 "
     transform="translate(5.8868121,0.24)" />
  <polygon
     style="fill:currentColor;stroke:currentColor;stroke-width:0.08;stroke-linecap:round;stroke-linejoin:round"
     id="polygon2586"
     points="0.04,0.2 0.04,-0.2 1.125,-0.2 1.125,0.2 "
     transform="translate(9.2700121,1.05)" />
  <a
     transform="translate(-5.6898879,-3.8453)"
     id="a2590"
     xlink:href="textedit:///Users/jyang/Documents/GitHub/dstyge/notation/dstyge_bassdrum_perc.ly:14:6:7"
     style="color:inherit">
    <path
       style="fill:currentColor"
       id="path2588"
       d="m 220,138 c 56,0 109,-29 109,-91 0,-72 -56,-121 -103,-149 -36,-21 -76,-36 -117,-36 -56,0 -109,29 -109,91 0,72 56,121 103,149 36,21 76,36 117,36 z"
       transform="matrix(0.004,0,0,-0.004,10.3905,7.2753)" />
  </a>
  <path
     style="fill:currentColor;stroke-width:0.004"
     id="path2592"
     d="m 2.4367121,3.322 c -0.196,0 -0.3,-0.168 -0.3,-0.3 0,-0.152 0.108,-0.308 0.288,-0.308 0.016,0 0.036,0 0.056,0.004 -0.112,-0.148 -0.288,-0.236 -0.48,-0.236 -0.424,0 -0.452,0.292 -0.452,0.744 V 3.43 3.634 c 0,0.452 0.028,0.748 0.452,0.748 0.32,0 0.556,-0.28 0.632,-0.604 0.008,-0.028 0.028,-0.04 0.048,-0.04 0.024,0 0.052,0.016 0.052,0.048 0,0.376 -0.42,0.696 -0.732,0.696 -0.272,0 -0.548,-0.084 -0.736,-0.28 -0.196,-0.204 -0.264,-0.488 -0.264,-0.772 0,-0.284 0.068,-0.568 0.264,-0.772 0.188,-0.196 0.464,-0.276 0.736,-0.276 0.348,0 0.64,0.256 0.7,0.6 0.004,0.02 0.004,0.036 0.004,0.052 0,0.16 -0.12,0.288 -0.268,0.288 z" />
  <path
     style="fill:currentColor;stroke-width:0.004"
     id="path2594"
     d="m 6.4668121,2.93 c 0,-0.124 0.1,-0.224 0.224,-0.224 0.124,0 0.224,0.1 0.224,0.224 0,0.124 -0.1,0.224 -0.224,0.224 -0.124,0 -0.224,-0.1 -0.224,-0.224 z" />
  <rect
     style="fill:currentColor"
     id="rect2596"
     ry="0.039999999"
     height="3.0021999"
     width="0.13"
     y="0.23999994"
     x="5.8868122" />
  <a
     transform="translate(-5.6898879,-3.8453)"
     id="a2600"
     xlink:href="textedit:///Users/jyang/Documents/GitHub/dstyge/notation/dstyge_bassdrum_perc.ly:14:29:30"
     style="color:inherit">
    <path
       style="fill:currentColor"
       id="path2598"
       d="m -23,-116 c 0,28 11,42 40,42 33,0 78,-13 119,-31 L 4,53 c -7,9 -10,17 -10,25 0,34 50,66 87,99 25,22 37,52 37,83 0,24 -8,49 -25,69 l -35,42 c -3,3 -4,7 -4,10 0,9 9,15 17,15 4,0 8,-1 11,-5 L 233,211 c 7,-9 10,-17 10,-25 0,-34 -50,-66 -87,-99 -25,-22 -37,-52 -37,-83 0,-24 7,-49 24,-69 l 84,-99 c 3,-3 4,-7 4,-10 0,-9 -8,-16 -16,-16 -4,0 -9,2 -12,6 -18,21 -63,38 -97,38 -41,0 -53,-26 -53,-67 0,-35 11,-74 28,-94 5,-6 0,-13 -6,-13 -2,0 -4,0 -6,2 -45,54 -92,148 -92,202 z"
       transform="matrix(0.004,0,0,-0.004,28.9952,7.2753)" />
  </a>
</svg>
