<?xml version="1.0" encoding="UTF-8" standalone="no"?>
<svg
   xmlns:dc="http://purl.org/dc/elements/1.1/"
   xmlns:cc="http://creativecommons.org/ns#"
   xmlns:rdf="http://www.w3.org/1999/02/22-rdf-syntax-ns#"
   xmlns:svg="http://www.w3.org/2000/svg"
   xmlns="http://www.w3.org/2000/svg"
   xmlns:xlink="http://www.w3.org/1999/xlink"
   id="svg1583"
   viewBox="0 0 29.281724 17.47"
   height="30.700008mm"
   width="51.456738mm"
   version="1.2">
  <metadata
     id="metadata1589">
    <rdf:RDF>
      <cc:Work
         rdf:about="">
        <dc:format>image/svg+xml</dc:format>
        <dc:type
           rdf:resource="http://purl.org/dc/dcmitype/StillImage" />
        <dc:title></dc:title>
      </cc:Work>
    </rdf:RDF>
  </metadata>
  <defs
     id="defs1587" />
  <!-- Page: 1/1 -->
  <text
     y="-1"
     x="0.82821184"
     style="font-size:2.20009995px;font-family:'Century Schoolbook L';text-anchor:start;fill:currentColor"
     id="text1431"
     font-size="2.2001">
    <tspan
       id="tspan1429" />
  </text>
  <line
     style="stroke:currentColor;stroke-width:0.1;stroke-linecap:round;stroke-linejoin:round"
     id="line1433"
     y2="3.4300001"
     x2="29.231012"
     y1="3.4300001"
     x1="0.8782118" />
  <rect
     style="fill:currentColor"
     id="rect1435"
     ry="0.0000"
     height="2.0999999"
     width="0.19"
     y="2.3800001"
     x="29.090912" />
  <rect
     style="fill:currentColor"
     id="rect1437"
     ry="0.039999999"
     height="3.0021999"
     width="0.13"
     y="0.23999994"
     x="22.071411" />
  <a
     transform="translate(-4.8623882,-3.8453)"
     id="a1441"
     xlink:href="textedit:///Users/jyang/Documents/GitHub/dstyge/notation/dstyge_bottles_perc.ly:14:40:41"
     style="color:inherit">
    <path
       style="fill:currentColor"
       id="path1439"
       d="m 220,138 c 56,0 109,-29 109,-91 0,-72 -56,-121 -103,-149 -36,-21 -76,-36 -117,-36 -56,0 -109,29 -109,91 0,72 56,121 103,149 36,21 76,36 117,36 z"
       transform="matrix(0.004,0,0,-0.004,25.7477,7.2753)" />
  </a>
  <rect
     style="fill:currentColor"
     id="rect1443"
     ry="0.039999999"
     height="3.0021999"
     width="0.13"
     y="0.23999994"
     x="6.7143116" />
  <rect
     style="fill:currentColor"
     id="rect1445"
     ry="0.039999999"
     height="3.0021999"
     width="0.13"
     y="0.23999994"
     x="18.524212" />
  <path
     style="fill:currentColor;stroke-width:0.004"
     id="path1447"
     d="m 19.104212,2.93 c 0,-0.124 0.1,-0.224 0.224,-0.224 0.124,0 0.224,0.1 0.224,0.224 0,0.124 -0.1,0.224 -0.224,0.224 -0.124,0 -0.224,-0.1 -0.224,-0.224 z" />
  <a
     transform="translate(-4.8623882,-3.8453)"
     id="a1451"
     xlink:href="textedit:///Users/jyang/Documents/GitHub/dstyge/notation/dstyge_bottles_perc.ly:14:33:34"
     style="color:inherit">
    <path
       style="fill:currentColor"
       id="path1449"
       d="m 220,138 c 56,0 109,-29 109,-91 0,-72 -56,-121 -103,-149 -36,-21 -76,-36 -117,-36 -56,0 -109,29 -109,91 0,72 56,121 103,149 36,21 76,36 117,36 z"
       transform="matrix(0.004,0,0,-0.004,22.2004,7.2753)" />
  </a>
  <polygon
     style="fill:currentColor;stroke:currentColor;stroke-width:0.08;stroke-linecap:round;stroke-linejoin:round"
     id="polygon1453"
     points="3.6372,-0.2 3.6372,0.2 0.04,0.2 0.04,-0.2 "
     transform="translate(6.7143118,0.24)" />
  <polygon
     style="fill:currentColor;stroke:currentColor;stroke-width:0.08;stroke-linecap:round;stroke-linejoin:round"
     id="polygon1455"
     points="1.125,-0.2 1.125,0.2 0.04,0.2 0.04,-0.2 "
     transform="translate(9.2266118,1.05)" />
  <polygon
     style="fill:currentColor;stroke:currentColor;stroke-width:0.08;stroke-linecap:round;stroke-linejoin:round"
     id="polygon1457"
     points="3.6372,-0.2 3.6372,0.2 0.04,0.2 0.04,-0.2 "
     transform="translate(18.524212,0.24)" />
  <polygon
     style="fill:currentColor;stroke:currentColor;stroke-width:0.08;stroke-linecap:round;stroke-linejoin:round"
     id="polygon1459"
     points="1.125,-0.2 1.125,0.2 0.04,0.2 0.04,-0.2 "
     transform="translate(21.036412,1.05)" />
  <path
     style="fill:currentColor;stroke-width:0.004"
     id="path1461"
     d="m 27.157312,0.095 c 0,0.792 0.836,1.34 0.836,2.132 0,0.284 -0.064,0.564 -0.168,0.828 -0.02,0.032 -0.048,0.048 -0.076,0.048 -0.052,0 -0.104,-0.044 -0.092,-0.108 0.104,-0.244 0.168,-0.504 0.168,-0.768 0,-0.416 -0.38,-0.832 -0.668,-1.132 h -0.064 v -1 z" />
  <rect
     style="fill:currentColor"
     id="rect1463"
     ry="0.039999999"
     height="3.1872001"
     width="0.13"
     y="0.055"
     x="27.027311" />
  <a
     transform="translate(-4.8623882,-3.8453)"
     id="a1467"
     xlink:href="textedit:///Users/jyang/Documents/GitHub/dstyge/notation/dstyge_bottles_perc.ly:14:50:51"
     style="color:inherit">
    <path
       style="fill:currentColor"
       id="path1465"
       d="m 220,138 c 56,0 109,-29 109,-91 0,-72 -56,-121 -103,-149 -36,-21 -76,-36 -117,-36 -56,0 -109,29 -109,91 0,72 56,121 103,149 36,21 76,36 117,36 z"
       transform="matrix(0.004,0,0,-0.004,30.7035,7.2753)" />
  </a>
  <a
     transform="translate(-4.8623882,-3.8453)"
     id="a1471"
     xlink:href="textedit:///Users/jyang/Documents/GitHub/dstyge/notation/dstyge_bottles_perc.ly:14:47:48"
     style="color:inherit">
    <path
       style="fill:currentColor"
       id="path1469"
       d="M 72,-250 189,76 C 155,64 120,54 84,54 38,54 -3,87 -3,133 c 0,40 33,72 73,72 25,0 48,-15 56,-39 10,-28 6,-59 35,-59 16,0 54,48 61,63 6,12 23,12 28,0 L 127,-250 c -8,-7 -17,-10 -27,-10 -10,0 -20,3 -28,10 z"
       transform="matrix(0.004,0,0,-0.004,27.9637,7.2753)" />
  </a>
  <a
     transform="translate(-4.8623882,-3.8453)"
     id="a1475"
     xlink:href="textedit:///Users/jyang/Documents/GitHub/dstyge/notation/dstyge_bottles_perc.ly:14:13:14"
     style="color:inherit">
    <path
       style="fill:currentColor"
       id="path1473"
       d="m 220,138 c 56,0 109,-29 109,-91 0,-72 -56,-121 -103,-149 -36,-21 -76,-36 -117,-36 -56,0 -109,29 -109,91 0,72 56,121 103,149 36,21 76,36 117,36 z"
       transform="matrix(0.004,0,0,-0.004,13.9378,7.2753)" />
  </a>
  <rect
     style="fill:currentColor"
     id="rect1477"
     ry="0.039999999"
     height="3.0021999"
     width="0.13"
     y="0.23999994"
     x="10.261612" />
  <a
     transform="translate(-4.8623882,-3.8453)"
     id="a1481"
     xlink:href="textedit:///Users/jyang/Documents/GitHub/dstyge/notation/dstyge_bottles_perc.ly:14:6:7"
     style="color:inherit">
    <path
       style="fill:currentColor"
       id="path1479"
       d="m 220,138 c 56,0 109,-29 109,-91 0,-72 -56,-121 -103,-149 -36,-21 -76,-36 -117,-36 -56,0 -109,29 -109,91 0,72 56,121 103,149 36,21 76,36 117,36 z"
       transform="matrix(0.004,0,0,-0.004,10.3905,7.2753)" />
  </a>
  <path
     style="fill:currentColor;stroke-width:0.004"
     id="path1483"
     d="m 3.2642118,3.322 c -0.196,0 -0.3,-0.168 -0.3,-0.3 0,-0.152 0.108,-0.308 0.288,-0.308 0.016,0 0.036,0 0.056,0.004 -0.112,-0.148 -0.288,-0.236 -0.48,-0.236 -0.424,0 -0.452,0.292 -0.452,0.744 V 3.43 3.634 c 0,0.452 0.028,0.748 0.452,0.748 0.32,0 0.556,-0.28 0.632,-0.604 0.008,-0.028 0.028,-0.04 0.048,-0.04 0.024,0 0.052,0.016 0.052,0.048 0,0.376 -0.42,0.696 -0.732,0.696 -0.272,0 -0.548,-0.084 -0.736,-0.28 -0.196,-0.204 -0.264,-0.488 -0.264,-0.772 0,-0.284 0.068,-0.568 0.264,-0.772 0.188,-0.196 0.464,-0.276 0.736,-0.276 0.348,0 0.64,0.256 0.7,0.6 0.004,0.02 0.004,0.036 0.004,0.052 0,0.16 -0.12,0.288 -0.268,0.288 z" />
  <a
     transform="translate(-4.8623882,-3.8453)"
     id="a1487"
     xlink:href="textedit:///Users/jyang/Documents/GitHub/dstyge/notation/dstyge_bottles_perc.ly:14:20:21"
     style="color:inherit">
    <path
       style="fill:currentColor"
       id="path1485"
       d="M 72,-250 189,76 C 155,64 120,54 84,54 38,54 -3,87 -3,133 c 0,40 33,72 73,72 25,0 48,-15 56,-39 10,-28 6,-59 35,-59 16,0 54,48 61,63 6,12 23,12 28,0 L 127,-250 c -8,-7 -17,-10 -27,-10 -10,0 -20,3 -28,10 z"
       transform="matrix(0.004,0,0,-0.004,16.1538,7.2753)" />
  </a>
  <path
     style="fill:currentColor;stroke-width:0.004"
     id="path1489"
     d="m 7.2943118,2.93 c 0,-0.124 0.1,-0.224 0.224,-0.224 0.124,0 0.224,0.1 0.224,0.224 0,0.124 -0.1,0.224 -0.224,0.224 -0.124,0 -0.224,-0.1 -0.224,-0.224 z" />
  <path
     style="fill:currentColor;stroke-width:0.004"
     id="path1491"
     d="m 15.347412,0.095 c 0,0.792 0.836,1.34 0.836,2.132 0,0.284 -0.064,0.564 -0.168,0.828 -0.02,0.032 -0.048,0.048 -0.076,0.048 -0.052,0 -0.104,-0.044 -0.092,-0.108 0.104,-0.244 0.168,-0.504 0.168,-0.768 0,-0.416 -0.38,-0.832 -0.668,-1.132 h -0.064 v -1 z" />
  <rect
     style="fill:currentColor"
     id="rect1493"
     ry="0.039999999"
     height="3.1872001"
     width="0.13"
     y="0.055"
     x="15.217412" />
  <a
     transform="translate(-4.8623882,-3.8453)"
     id="a1497"
     xlink:href="textedit:///Users/jyang/Documents/GitHub/dstyge/notation/dstyge_bottles_perc.ly:14:23:24"
     style="color:inherit">
    <path
       style="fill:currentColor"
       id="path1495"
       d="m 220,138 c 56,0 109,-29 109,-91 0,-72 -56,-121 -103,-149 -36,-21 -76,-36 -117,-36 -56,0 -109,29 -109,91 0,72 56,121 103,149 36,21 76,36 117,36 z"
       transform="matrix(0.004,0,0,-0.004,18.8936,7.2753)" />
  </a>
  <line
     style="stroke:currentColor;stroke-width:0.1;stroke-linecap:round;stroke-linejoin:round"
     id="line1499"
     y2="15.43"
     x2="29.231012"
     y1="15.43"
     x1="0.8782118" />
  <rect
     style="fill:currentColor"
     id="rect1501"
     ry="0.0000"
     height="2.0999999"
     width="0.19"
     y="14.38"
     x="29.090912" />
  <a
     transform="translate(-4.8623882,-3.8453)"
     id="a1505"
     xlink:href="textedit:///Users/jyang/Documents/GitHub/dstyge/notation/dstyge_bottles_perc.ly:14:93:94"
     style="color:inherit">
    <path
       style="fill:currentColor"
       id="path1503"
       d="m 66,-500 101,327 c -34,-12 -70,-23 -106,-23 -46,0 -87,33 -87,79 0,40 32,72 72,72 25,0 49,-15 57,-39 10,-28 5,-59 34,-59 16,0 55,51 60,68 L 243,76 C 209,64 175,54 139,54 93,54 52,87 52,133 c 0,40 33,72 73,72 25,0 48,-15 56,-39 10,-28 5,-59 34,-59 15,0 50,49 57,63 6,12 23,12 28,0 L 121,-500 c -8,-7 -17,-10 -27,-10 -10,0 -20,3 -28,10 z"
       transform="matrix(0.004,0,0,-0.004,23.1617,19.2753)" />
  </a>
  <path
     style="fill:currentColor;stroke-width:0.004"
     id="path1507"
     d="m 17.013312,12.095 c 0,0.712 0.812,1.168 0.812,1.88 0,0.132 -0.036,0.26 -0.092,0.38 0.072,0.148 0.116,0.3 0.116,0.468 0,0.252 -0.064,0.5 -0.168,0.732 -0.02,0.032 -0.048,0.048 -0.076,0.048 -0.052,0 -0.104,-0.044 -0.092,-0.108 0.104,-0.208 0.168,-0.44 0.168,-0.672 0,-0.388 -0.38,-0.764 -0.668,-1.028 v 0.3 h -0.064 v -2 z m 0.612,2.068 c 0.02,-0.06 0.028,-0.124 0.028,-0.188 0,-0.384 -0.364,-0.76 -0.64,-1.028 0,0.472 0.364,0.824 0.612,1.216 z" />
  <rect
     style="fill:currentColor"
     id="rect1509"
     ry="0.039999999"
     height="3.1872001"
     width="0.13"
     y="12.055"
     x="16.883312" />
  <a
     transform="translate(-4.8623882,-3.8453)"
     id="a1513"
     xlink:href="textedit:///Users/jyang/Documents/GitHub/dstyge/notation/dstyge_bottles_perc.ly:14:88:89"
     style="color:inherit">
    <path
       style="fill:currentColor"
       id="path1511"
       d="m 220,138 c 56,0 109,-29 109,-91 0,-72 -56,-121 -103,-149 -36,-21 -76,-36 -117,-36 -56,0 -109,29 -109,91 0,72 56,121 103,149 36,21 76,36 117,36 z"
       transform="matrix(0.004,0,0,-0.004,20.5595,19.2753)" />
  </a>
  <a
     transform="translate(-4.8623882,-3.8453)"
     id="a1517"
     xlink:href="textedit:///Users/jyang/Documents/GitHub/dstyge/notation/dstyge_bottles_perc.ly:14:84:85"
     style="color:inherit">
    <path
       style="fill:currentColor"
       id="path1515"
       d="m 66,-500 101,327 c -34,-12 -70,-23 -106,-23 -46,0 -87,33 -87,79 0,40 32,72 72,72 25,0 49,-15 57,-39 10,-28 5,-59 34,-59 16,0 55,51 60,68 L 243,76 C 209,64 175,54 139,54 93,54 52,87 52,133 c 0,40 33,72 73,72 25,0 48,-15 56,-39 10,-28 5,-59 34,-59 15,0 50,49 57,63 6,12 23,12 28,0 L 121,-500 c -8,-7 -17,-10 -27,-10 -10,0 -20,3 -28,10 z"
       transform="matrix(0.004,0,0,-0.004,18.4645,19.2753)" />
  </a>
  <path
     style="fill:currentColor;stroke-width:0.004"
     id="path1519"
     d="m 11.618012,12.095 c 0,0.792 0.836,1.34 0.836,2.132 0,0.284 -0.064,0.564 -0.168,0.828 -0.02,0.032 -0.048,0.048 -0.076,0.048 -0.052,0 -0.104,-0.044 -0.092,-0.108 0.104,-0.244 0.168,-0.504 0.168,-0.768 0,-0.416 -0.38,-0.832 -0.668,-1.132 h -0.064 v -1 z" />
  <rect
     style="fill:currentColor"
     id="rect1521"
     ry="0.039999999"
     height="3.1872001"
     width="0.13"
     y="12.055"
     x="11.488011" />
  <a
     transform="translate(-4.8623882,-3.8453)"
     id="a1525"
     xlink:href="textedit:///Users/jyang/Documents/GitHub/dstyge/notation/dstyge_bottles_perc.ly:14:75:76"
     style="color:inherit">
    <path
       style="fill:currentColor"
       id="path1523"
       d="m 220,138 c 56,0 109,-29 109,-91 0,-72 -56,-121 -103,-149 -36,-21 -76,-36 -117,-36 -56,0 -109,29 -109,91 0,72 56,121 103,149 36,21 76,36 117,36 z"
       transform="matrix(0.004,0,0,-0.004,15.1642,19.2753)" />
  </a>
  <polygon
     style="fill:currentColor;stroke:currentColor;stroke-width:0.08;stroke-linecap:round;stroke-linejoin:round"
     id="polygon1527"
     points="3.6232,-0.2 3.6232,0.2 0.04,0.2 0.04,-0.2 "
     transform="translate(3.0143118,12.24)" />
  <polygon
     style="fill:currentColor;stroke:currentColor;stroke-width:0.08;stroke-linecap:round;stroke-linejoin:round"
     id="polygon1529"
     points="1.125,-0.2 1.125,0.2 0.04,0.2 0.04,-0.2 "
     transform="translate(5.5126118,13.05)" />
  <polygon
     style="fill:currentColor;stroke:currentColor;stroke-width:0.08;stroke-linecap:round;stroke-linejoin:round"
     id="polygon1531"
     points="3.1353,-0.2 3.1353,0.2 0.04,0.2 0.04,-0.2 "
     transform="translate(24.182812,12.43)" />
  <rect
     style="fill:currentColor"
     id="rect1533"
     ry="0.039999999"
     height="2.8122001"
     width="0.13"
     y="12.43"
     x="27.228111" />
  <a
     transform="translate(-4.8623882,-3.8453)"
     id="a1537"
     xlink:href="textedit:///Users/jyang/Documents/GitHub/dstyge/notation/dstyge_bottles_perc.ly:14:109:110"
     style="color:inherit">
    <path
       style="fill:currentColor"
       id="path1535"
       d="m 220,138 c 56,0 109,-29 109,-91 0,-72 -56,-121 -103,-149 -36,-21 -76,-36 -117,-36 -56,0 -109,29 -109,91 0,72 56,121 103,149 36,21 76,36 117,36 z"
       transform="matrix(0.004,0,0,-0.004,30.9043,19.2753)" />
  </a>
  <rect
     style="fill:currentColor"
     id="rect1539"
     ry="0.039999999"
     height="2.8122001"
     width="0.13"
     y="12.43"
     x="24.182812" />
  <a
     transform="translate(-4.8623882,-3.8453)"
     id="a1543"
     xlink:href="textedit:///Users/jyang/Documents/GitHub/dstyge/notation/dstyge_bottles_perc.ly:14:103:104"
     style="color:inherit">
    <path
       style="fill:currentColor"
       id="path1541"
       d="m 220,138 c 56,0 109,-29 109,-91 0,-72 -56,-121 -103,-149 -36,-21 -76,-36 -117,-36 -56,0 -109,29 -109,91 0,72 56,121 103,149 36,21 76,36 117,36 z"
       transform="matrix(0.004,0,0,-0.004,27.859,19.2753)" />
  </a>
  <path
     style="fill:currentColor;stroke-width:0.004"
     id="path1545"
     d="m 21.710612,12.095 c 0,0.712 0.812,1.168 0.812,1.88 0,0.132 -0.036,0.26 -0.092,0.38 0.072,0.148 0.116,0.3 0.116,0.468 0,0.252 -0.064,0.5 -0.168,0.732 -0.02,0.032 -0.048,0.048 -0.076,0.048 -0.052,0 -0.104,-0.044 -0.092,-0.108 0.104,-0.208 0.168,-0.44 0.168,-0.672 0,-0.388 -0.38,-0.764 -0.668,-1.028 v 0.3 h -0.064 v -2 z m 0.612,2.068 c 0.02,-0.06 0.028,-0.124 0.028,-0.188 0,-0.384 -0.364,-0.76 -0.64,-1.028 0,0.472 0.364,0.824 0.612,1.216 z" />
  <rect
     style="fill:currentColor"
     id="rect1547"
     ry="0.039999999"
     height="3.1872001"
     width="0.13"
     y="12.055"
     x="21.580612" />
  <a
     transform="translate(-4.8623882,-3.8453)"
     id="a1551"
     xlink:href="textedit:///Users/jyang/Documents/GitHub/dstyge/notation/dstyge_bottles_perc.ly:14:95:96"
     style="color:inherit">
    <path
       style="fill:currentColor"
       id="path1549"
       d="m 220,138 c 56,0 109,-29 109,-91 0,-72 -56,-121 -103,-149 -36,-21 -76,-36 -117,-36 -56,0 -109,29 -109,91 0,72 56,121 103,149 36,21 76,36 117,36 z"
       transform="matrix(0.004,0,0,-0.004,25.2568,19.2753)" />
  </a>
  <rect
     style="fill:currentColor"
     id="rect1553"
     ry="0.039999999"
     height="3.0021999"
     width="0.13"
     y="12.24"
     x="3.0143118" />
  <path
     style="fill:currentColor;stroke-width:0.004"
     id="path1555"
     d="m 3.5943118,14.93 c 0,-0.124 0.1,-0.224 0.224,-0.224 0.124,0 0.224,0.1 0.224,0.224 0,0.124 -0.1,0.224 -0.224,0.224 -0.124,0 -0.224,-0.1 -0.224,-0.224 z" />
  <a
     transform="translate(-4.8623882,-3.8453)"
     id="a1559"
     xlink:href="textedit:///Users/jyang/Documents/GitHub/dstyge/notation/dstyge_bottles_perc.ly:14:58:59"
     style="color:inherit">
    <path
       style="fill:currentColor"
       id="path1557"
       d="m 220,138 c 56,0 109,-29 109,-91 0,-72 -56,-121 -103,-149 -36,-21 -76,-36 -117,-36 -56,0 -109,29 -109,91 0,72 56,121 103,149 36,21 76,36 117,36 z"
       transform="matrix(0.004,0,0,-0.004,6.6906,19.2753)" />
  </a>
  <text
     y="14.38"
     x="-0.12788817"
     style="font-size:1.74609995px;font-family:'Century Schoolbook L';text-anchor:start;fill:currentColor"
     id="text1563"
     font-size="1.7461">
    <tspan
       id="tspan1561">2</tspan>
  </text>
  <a
     transform="translate(-4.8623882,-3.8453)"
     id="a1567"
     xlink:href="textedit:///Users/jyang/Documents/GitHub/dstyge/notation/dstyge_bottles_perc.ly:14:72:73"
     style="color:inherit">
    <path
       style="fill:currentColor"
       id="path1565"
       d="M 72,-250 189,76 C 155,64 120,54 84,54 38,54 -3,87 -3,133 c 0,40 33,72 73,72 25,0 48,-15 56,-39 10,-28 6,-59 35,-59 16,0 54,48 61,63 6,12 23,12 28,0 L 127,-250 c -8,-7 -17,-10 -27,-10 -10,0 -20,3 -28,10 z"
       transform="matrix(0.004,0,0,-0.004,12.435,19.2753)" />
  </a>
  <rect
     style="fill:currentColor"
     id="rect1569"
     ry="0.039999999"
     height="3.0021999"
     width="0.13"
     y="12.24"
     x="6.5476117" />
  <a
     transform="translate(-4.8623882,-3.8453)"
     id="a1573"
     xlink:href="textedit:///Users/jyang/Documents/GitHub/dstyge/notation/dstyge_bottles_perc.ly:14:65:66"
     style="color:inherit">
    <path
       style="fill:currentColor"
       id="path1571"
       d="m 220,138 c 56,0 109,-29 109,-91 0,-72 -56,-121 -103,-149 -36,-21 -76,-36 -117,-36 -56,0 -109,29 -109,91 0,72 56,121 103,149 36,21 76,36 117,36 z"
       transform="matrix(0.004,0,0,-0.004,10.2238,19.2753)" />
  </a>
</svg>
