<?xml version="1.0" encoding="UTF-8" standalone="no"?>
<svg
   xmlns:dc="http://purl.org/dc/elements/1.1/"
   xmlns:cc="http://creativecommons.org/ns#"
   xmlns:rdf="http://www.w3.org/1999/02/22-rdf-syntax-ns#"
   xmlns:svg="http://www.w3.org/2000/svg"
   xmlns="http://www.w3.org/2000/svg"
   xmlns:xlink="http://www.w3.org/1999/xlink"
   id="svg2922"
   viewBox="0 0 29.281722 16.48"
   height="28.960283mm"
   width="51.456734mm"
   version="1.2">
  <metadata
     id="metadata2928">
    <rdf:RDF>
      <cc:Work
         rdf:about="">
        <dc:format>image/svg+xml</dc:format>
        <dc:type
           rdf:resource="http://purl.org/dc/dcmitype/StillImage" />
        <dc:title></dc:title>
      </cc:Work>
    </rdf:RDF>
  </metadata>
  <defs
     id="defs2926" />
  <!-- Page: 1/1 -->
  <text
     y="-1"
     x="0.82821184"
     style="font-size:2.20009995px;font-family:'Century Schoolbook L';text-anchor:start;fill:currentColor"
     id="text2822"
     font-size="2.2001">
    <tspan
       id="tspan2820" />
  </text>
  <line
     style="stroke:currentColor;stroke-width:0.1;stroke-linecap:round;stroke-linejoin:round"
     id="line2824"
     y2="3.4300001"
     x2="29.231012"
     y1="3.4300001"
     x1="0.8782118" />
  <rect
     style="fill:currentColor"
     id="rect2826"
     ry="0.0000"
     height="2.0999999"
     width="0.19"
     y="2.3800001"
     x="29.090912" />
  <a
     transform="translate(-4.8623882,-3.8453)"
     id="a2830"
     xlink:href="textedit:///Users/jyang/Documents/GitHub/dstyge/notation/dstyge_cowbell.ly:14:22:23"
     style="color:inherit">
    <path
       style="fill:currentColor"
       id="path2828"
       d="m 220,138 c 56,0 109,-29 109,-91 0,-72 -56,-121 -103,-149 -36,-21 -76,-36 -117,-36 -56,0 -109,29 -109,91 0,72 56,121 103,149 36,21 76,36 117,36 z"
       transform="matrix(0.004,0,0,-0.004,26.7657,7.2753)" />
  </a>
  <rect
     style="fill:currentColor"
     id="rect2832"
     ry="0.039999999"
     height="3.0021999"
     width="0.13"
     y="0.23999994"
     x="18.592913" />
  <path
     style="fill:currentColor;stroke-width:0.004"
     id="path2834"
     d="m 19.172912,2.93 c 0,-0.124 0.1,-0.224 0.224,-0.224 0.124,0 0.224,0.1 0.224,0.224 0,0.124 -0.1,0.224 -0.224,0.224 -0.124,0 -0.224,-0.1 -0.224,-0.224 z" />
  <a
     transform="translate(-4.8623882,-3.8453)"
     id="a2838"
     xlink:href="textedit:///Users/jyang/Documents/GitHub/dstyge/notation/dstyge_cowbell.ly:14:17:18"
     style="color:inherit">
    <path
       style="fill:currentColor"
       id="path2836"
       d="m 220,138 c 56,0 109,-29 109,-91 0,-72 -56,-121 -103,-149 -36,-21 -76,-36 -117,-36 -56,0 -109,29 -109,91 0,72 56,121 103,149 36,21 76,36 117,36 z"
       transform="matrix(0.004,0,0,-0.004,22.2692,7.2753)" />
  </a>
  <path
     style="fill:currentColor;stroke-width:0.004"
     id="path2840"
     d="m 14.946112,0.095 c 0,0.792 0.836,1.34 0.836,2.132 0,0.284 -0.064,0.564 -0.168,0.828 -0.02,0.032 -0.048,0.048 -0.076,0.048 -0.052,0 -0.104,-0.044 -0.092,-0.108 0.104,-0.244 0.168,-0.504 0.168,-0.768 0,-0.416 -0.38,-0.832 -0.668,-1.132 h -0.064 v -1 z" />
  <rect
     style="fill:currentColor"
     id="rect2842"
     ry="0.039999999"
     height="3.0021999"
     width="0.13"
     y="0.23999994"
     x="23.089512" />
  <a
     transform="translate(-4.8623882,-3.8453)"
     id="a2846"
     xlink:href="textedit:///Users/jyang/Documents/GitHub/dstyge/notation/dstyge_cowbell.ly:14:27:28"
     style="color:inherit">
    <path
       style="fill:currentColor"
       id="path2844"
       d="m -23,-116 c 0,28 11,42 40,42 33,0 78,-13 119,-31 L 4,53 c -7,9 -10,17 -10,25 0,34 50,66 87,99 25,22 37,52 37,83 0,24 -8,49 -25,69 l -35,42 c -3,3 -4,7 -4,10 0,9 9,15 17,15 4,0 8,-1 11,-5 L 233,211 c 7,-9 10,-17 10,-25 0,-34 -50,-66 -87,-99 -25,-22 -37,-52 -37,-83 0,-24 7,-49 24,-69 l 84,-99 c 3,-3 4,-7 4,-10 0,-9 -8,-16 -16,-16 -4,0 -9,2 -12,6 -18,21 -63,38 -97,38 -41,0 -53,-26 -53,-67 0,-35 11,-74 28,-94 5,-6 0,-13 -6,-13 -2,0 -4,0 -6,2 -45,54 -92,148 -92,202 z"
       transform="matrix(0.004,0,0,-0.004,29.3123,7.2753)" />
  </a>
  <polygon
     style="fill:currentColor;stroke:currentColor;stroke-width:0.08;stroke-linecap:round;stroke-linejoin:round"
     id="polygon2848"
     points="0.04,0.2 0.04,-0.2 4.5866,-0.2 4.5866,0.2 "
     transform="translate(18.592912,0.24)" />
  <polygon
     style="fill:currentColor;stroke:currentColor;stroke-width:0.08;stroke-linecap:round;stroke-linejoin:round"
     id="polygon2850"
     points="0.04,0.2 0.04,-0.2 1.125,-0.2 1.125,0.2 "
     transform="translate(22.054512,1.05)" />
  <path
     style="fill:currentColor;stroke-width:0.004"
     id="path2852"
     d="m 3.2642118,3.322 c -0.196,0 -0.3,-0.168 -0.3,-0.3 0,-0.152 0.108,-0.308 0.288,-0.308 0.016,0 0.036,0 0.056,0.004 -0.112,-0.148 -0.288,-0.236 -0.48,-0.236 -0.424,0 -0.452,0.292 -0.452,0.744 V 3.43 3.634 c 0,0.452 0.028,0.748 0.452,0.748 0.32,0 0.556,-0.28 0.632,-0.604 0.008,-0.028 0.028,-0.04 0.048,-0.04 0.024,0 0.052,0.016 0.052,0.048 0,0.376 -0.42,0.696 -0.732,0.696 -0.272,0 -0.548,-0.084 -0.736,-0.28 -0.196,-0.204 -0.264,-0.488 -0.264,-0.772 0,-0.284 0.068,-0.568 0.264,-0.772 0.188,-0.196 0.464,-0.276 0.736,-0.276 0.348,0 0.64,0.256 0.7,0.6 0.004,0.02 0.004,0.036 0.004,0.052 0,0.16 -0.12,0.288 -0.268,0.288 z" />
  <rect
     style="fill:currentColor"
     id="rect2854"
     ry="0.039999999"
     height="3.1872001"
     width="0.13"
     y="0.055"
     x="14.816112" />
  <a
     transform="translate(-4.8623882,-3.8453)"
     id="a2858"
     xlink:href="textedit:///Users/jyang/Documents/GitHub/dstyge/notation/dstyge_cowbell.ly:14:12:13"
     style="color:inherit">
    <path
       style="fill:currentColor"
       id="path2856"
       d="m 220,138 c 56,0 109,-29 109,-91 0,-72 -56,-121 -103,-149 -36,-21 -76,-36 -117,-36 -56,0 -109,29 -109,91 0,72 56,121 103,149 36,21 76,36 117,36 z"
       transform="matrix(0.004,0,0,-0.004,18.4923,7.2753)" />
  </a>
  <a
     transform="translate(-4.8623882,-3.8453)"
     id="a2862"
     xlink:href="textedit:///Users/jyang/Documents/GitHub/dstyge/notation/dstyge_cowbell.ly:14:6:7"
     style="color:inherit">
    <path
       style="fill:currentColor"
       id="path2860"
       d="m -23,-116 c 0,28 11,42 40,42 33,0 78,-13 119,-31 L 4,53 c -7,9 -10,17 -10,25 0,34 50,66 87,99 25,22 37,52 37,83 0,24 -8,49 -25,69 l -35,42 c -3,3 -4,7 -4,10 0,9 9,15 17,15 4,0 8,-1 11,-5 L 233,211 c 7,-9 10,-17 10,-25 0,-34 -50,-66 -87,-99 -25,-22 -37,-52 -37,-83 0,-24 7,-49 24,-69 l 84,-99 c 3,-3 4,-7 4,-10 0,-9 -8,-16 -16,-16 -4,0 -9,2 -12,6 -18,21 -63,38 -97,38 -41,0 -53,-26 -53,-67 0,-35 11,-74 28,-94 5,-6 0,-13 -6,-13 -2,0 -4,0 -6,2 -45,54 -92,148 -92,202 z"
       transform="matrix(0.004,0,0,-0.004,10.3905,7.2753)" />
  </a>
  <a
     transform="translate(-4.8623882,-3.8453)"
     id="a2866"
     xlink:href="textedit:///Users/jyang/Documents/GitHub/dstyge/notation/dstyge_cowbell.ly:14:9:10"
     style="color:inherit">
    <path
       style="fill:currentColor"
       id="path2864"
       d="M 72,-250 189,76 C 155,64 120,54 84,54 38,54 -3,87 -3,133 c 0,40 33,72 73,72 25,0 48,-15 56,-39 10,-28 6,-59 35,-59 16,0 54,48 61,63 6,12 23,12 28,0 L 127,-250 c -8,-7 -17,-10 -27,-10 -10,0 -20,3 -28,10 z"
       transform="matrix(0.004,0,0,-0.004,15.0316,7.2753)" />
  </a>
  <rect
     style="fill:currentColor"
     id="rect2868"
     ry="0.0000"
     height="2.0999999"
     width="0.19"
     y="14.38"
     x="29.090912" />
  <line
     style="stroke:currentColor;stroke-width:0.1;stroke-linecap:round;stroke-linejoin:round"
     id="line2870"
     y2="15.43"
     x2="29.231012"
     y1="15.43"
     x1="0.8782118" />
  <path
     style="fill:currentColor;stroke-width:0.004"
     id="path2872"
     d="m 7.9036118,12.095 c 0,0.792 0.836,1.34 0.836,2.132 0,0.284 -0.064,0.564 -0.168,0.828 -0.02,0.032 -0.048,0.048 -0.076,0.048 -0.052,0 -0.104,-0.044 -0.092,-0.108 0.104,-0.244 0.168,-0.504 0.168,-0.768 0,-0.416 -0.38,-0.832 -0.668,-1.132 h -0.064 v -1 z" />
  <a
     transform="translate(-4.8623882,-3.8453)"
     id="a2876"
     xlink:href="textedit:///Users/jyang/Documents/GitHub/dstyge/notation/dstyge_cowbell.ly:14:40:41"
     style="color:inherit">
    <path
       style="fill:currentColor"
       id="path2874"
       d="m 220,138 c 56,0 109,-29 109,-91 0,-72 -56,-121 -103,-149 -36,-21 -76,-36 -117,-36 -56,0 -109,29 -109,91 0,72 56,121 103,149 36,21 76,36 117,36 z"
       transform="matrix(0.004,0,0,-0.004,15.9138,19.2753)" />
  </a>
  <rect
     style="fill:currentColor"
     id="rect2878"
     ry="0.039999999"
     height="3.0021999"
     width="0.13"
     y="12.24"
     x="12.237612" />
  <a
     transform="translate(-4.8623882,-3.8453)"
     id="a2882"
     xlink:href="textedit:///Users/jyang/Documents/GitHub/dstyge/notation/dstyge_cowbell.ly:14:43:44"
     style="color:inherit">
    <path
       style="fill:currentColor"
       id="path2880"
       d="m 220,138 c 56,0 109,-29 109,-91 0,-72 -56,-121 -103,-149 -36,-21 -76,-36 -117,-36 -56,0 -109,29 -109,91 0,72 56,121 103,149 36,21 76,36 117,36 z"
       transform="matrix(0.004,0,0,-0.004,20.3777,19.2753)" />
  </a>
  <rect
     style="fill:currentColor"
     id="rect2884"
     ry="0.039999999"
     height="3.0021999"
     width="0.13"
     y="12.24"
     x="16.701511" />
  <a
     transform="translate(-4.8623882,-3.8453)"
     id="a2888"
     xlink:href="textedit:///Users/jyang/Documents/GitHub/dstyge/notation/dstyge_cowbell.ly:14:49:50"
     style="color:inherit">
    <path
       style="fill:currentColor"
       id="path2886"
       d="m 220,138 c 56,0 109,-29 109,-91 0,-72 -56,-121 -103,-149 -36,-21 -76,-36 -117,-36 -56,0 -109,29 -109,91 0,72 56,121 103,149 36,21 76,36 117,36 z"
       transform="matrix(0.004,0,0,-0.004,23.2678,19.2753)" />
  </a>
  <rect
     style="fill:currentColor"
     id="rect2890"
     ry="0.039999999"
     height="3.0021999"
     width="0.13"
     y="12.24"
     x="19.591513" />
  <a
     transform="translate(-4.8623882,-3.8453)"
     id="a2894"
     xlink:href="textedit:///Users/jyang/Documents/GitHub/dstyge/notation/dstyge_cowbell.ly:14:52:53"
     style="color:inherit">
    <path
       style="fill:currentColor"
       id="path2892"
       d="M 365,0 H 10 C 4,0 0,4 0,10 v 136 c 0,6 4,10 10,10 h 355 c 6,0 10,-4 10,-10 V 10 C 375,4 371,0 365,0 Z"
       transform="matrix(0.004,0,0,-0.004,26.1578,19.2753)" />
  </a>
  <polygon
     style="fill:currentColor;stroke:currentColor;stroke-width:0.08;stroke-linecap:round;stroke-linejoin:round"
     id="polygon2896"
     points="0.04,0.2 0.04,-0.2 7.444,-0.2 7.444,0.2 "
     transform="translate(12.237612,12.24)" />
  <polygon
     style="fill:currentColor;stroke:currentColor;stroke-width:0.08;stroke-linecap:round;stroke-linejoin:round"
     id="polygon2898"
     points="0.04,0.2 0.04,-0.2 2.9801,-0.2 2.9801,0.2 "
     transform="translate(16.701512,13.05)" />
  <text
     y="14.38"
     x="-0.12788817"
     style="font-size:1.74609995px;font-family:'Century Schoolbook L';text-anchor:start;fill:currentColor"
     id="text2902"
     font-size="1.7461">
    <tspan
       id="tspan2900">2</tspan>
  </text>
  <rect
     style="fill:currentColor"
     id="rect2904"
     ry="0.039999999"
     height="3.1872001"
     width="0.13"
     y="12.055"
     x="7.773612" />
  <a
     transform="translate(-4.8623882,-3.8453)"
     id="a2908"
     xlink:href="textedit:///Users/jyang/Documents/GitHub/dstyge/notation/dstyge_cowbell.ly:14:36:37"
     style="color:inherit">
    <path
       style="fill:currentColor"
       id="path2906"
       d="m 220,138 c 56,0 109,-29 109,-91 0,-72 -56,-121 -103,-149 -36,-21 -76,-36 -117,-36 -56,0 -109,29 -109,91 0,72 56,121 103,149 36,21 76,36 117,36 z"
       transform="matrix(0.004,0,0,-0.004,11.4499,19.2753)" />
  </a>
  <a
     transform="translate(-4.8623882,-3.8453)"
     id="a2912"
     xlink:href="textedit:///Users/jyang/Documents/GitHub/dstyge/notation/dstyge_cowbell.ly:14:33:34"
     style="color:inherit">
    <path
       style="fill:currentColor"
       id="path2910"
       d="M 72,-250 189,76 C 155,64 120,54 84,54 38,54 -3,87 -3,133 c 0,40 33,72 73,72 25,0 48,-15 56,-39 10,-28 6,-59 35,-59 16,0 54,48 61,63 6,12 23,12 28,0 L 127,-250 c -8,-7 -17,-10 -27,-10 -10,0 -20,3 -28,10 z"
       transform="matrix(0.004,0,0,-0.004,7.3021,19.2753)" />
  </a>
</svg>
