<?xml version="1.0" encoding="UTF-8" standalone="no"?>
<svg
   xmlns:dc="http://purl.org/dc/elements/1.1/"
   xmlns:cc="http://creativecommons.org/ns#"
   xmlns:rdf="http://www.w3.org/1999/02/22-rdf-syntax-ns#"
   xmlns:svg="http://www.w3.org/2000/svg"
   xmlns="http://www.w3.org/2000/svg"
   xmlns:xlink="http://www.w3.org/1999/xlink"
   id="svg2036"
   viewBox="0 0 16.277525 4.6132999"
   height="8.106946mm"
   width="28.604475mm"
   version="1.2">
  <metadata
     id="metadata2042">
    <rdf:RDF>
      <cc:Work
         rdf:about="">
        <dc:format>image/svg+xml</dc:format>
        <dc:type
           rdf:resource="http://purl.org/dc/dcmitype/StillImage" />
        <dc:title></dc:title>
      </cc:Work>
    </rdf:RDF>
  </metadata>
  <defs
     id="defs2040" />
  <!-- Page: 1/1 -->
  <text
     y="-0.99999988"
     x="0.00071212446"
     style="font-size:2.20009995px;font-family:'Century Schoolbook L';text-anchor:start;fill:currentColor"
     id="text2000"
     font-size="2.2001">
    <tspan
       id="tspan1998" />
  </text>
  <line
     style="stroke:currentColor;stroke-width:0.1;stroke-linecap:round;stroke-linejoin:round"
     id="line2002"
     y2="3.3333001"
     x2="16.226812"
     y1="3.3333001"
     x1="0.050712124" />
  <rect
     style="fill:currentColor"
     id="rect2004"
     ry="0.0000"
     height="2.0999999"
     width="0.19"
     y="2.2833002"
     x="16.086813" />
  <a
     transform="translate(-5.6898879,-3.8452999)"
     id="a2008"
     xlink:href="textedit:///Users/jyang/Documents/GitHub/dstyge/notation/dstyge_handclap_perc.ly:14:9:10"
     style="color:inherit">
    <path
       style="fill:currentColor"
       id="path2006"
       d="m 220,138 c 56,0 109,-29 109,-91 0,-72 -56,-121 -103,-149 -36,-21 -76,-36 -117,-36 -56,0 -109,29 -109,91 0,72 56,121 103,149 36,21 76,36 117,36 z"
       transform="matrix(0.004,0,0,-0.004,13.0386,7.1786)" />
  </a>
  <rect
     style="fill:currentColor"
     id="rect2010"
     ry="0.039999999"
     height="3.1454999"
     width="0.13"
     y="0"
     x="8.5349121" />
  <a
     transform="translate(-5.6898879,-3.8452999)"
     id="a2014"
     xlink:href="textedit:///Users/jyang/Documents/GitHub/dstyge/notation/dstyge_handclap_perc.ly:14:12:13"
     style="color:inherit">
    <path
       style="fill:currentColor"
       id="path2012"
       d="m -23,-116 c 0,28 11,42 40,42 33,0 78,-13 119,-31 L 4,53 c -7,9 -10,17 -10,25 0,34 50,66 87,99 25,22 37,52 37,83 0,24 -8,49 -25,69 l -35,42 c -3,3 -4,7 -4,10 0,9 9,15 17,15 4,0 8,-1 11,-5 L 233,211 c 7,-9 10,-17 10,-25 0,-34 -50,-66 -87,-99 -25,-22 -37,-52 -37,-83 0,-24 7,-49 24,-69 l 84,-99 c 3,-3 4,-7 4,-10 0,-9 -8,-16 -16,-16 -4,0 -9,2 -12,6 -18,21 -63,38 -97,38 -41,0 -53,-26 -53,-67 0,-35 11,-74 28,-94 5,-6 0,-13 -6,-13 -2,0 -4,0 -6,2 -45,54 -92,148 -92,202 z"
       transform="matrix(0.004,0,0,-0.004,16.0528,7.1786)" />
  </a>
  <a
     transform="translate(-5.6898879,-3.8452999)"
     id="a2018"
     xlink:href="textedit:///Users/jyang/Documents/GitHub/dstyge/notation/dstyge_handclap_perc.ly:14:14:15"
     style="color:inherit">
    <path
       style="fill:currentColor"
       id="path2016"
       d="m 220,138 c 56,0 109,-29 109,-91 0,-72 -56,-121 -103,-149 -36,-21 -76,-36 -117,-36 -56,0 -109,29 -109,91 0,72 56,121 103,149 36,21 76,36 117,36 z"
       transform="matrix(0.004,0,0,-0.004,18.7009,7.1786)" />
  </a>
  <rect
     style="fill:currentColor"
     id="rect2020"
     ry="0.039999999"
     height="3.1454999"
     width="0.13"
     y="0"
     x="14.197112" />
  <a
     transform="translate(-5.6898879,-3.8452999)"
     id="a2024"
     xlink:href="textedit:///Users/jyang/Documents/GitHub/dstyge/notation/dstyge_handclap_perc.ly:14:6:7"
     style="color:inherit">
    <path
       style="fill:currentColor"
       id="path2022"
       d="m -23,-116 c 0,28 11,42 40,42 33,0 78,-13 119,-31 L 4,53 c -7,9 -10,17 -10,25 0,34 50,66 87,99 25,22 37,52 37,83 0,24 -8,49 -25,69 l -35,42 c -3,3 -4,7 -4,10 0,9 9,15 17,15 4,0 8,-1 11,-5 L 233,211 c 7,-9 10,-17 10,-25 0,-34 -50,-66 -87,-99 -25,-22 -37,-52 -37,-83 0,-24 7,-49 24,-69 l 84,-99 c 3,-3 4,-7 4,-10 0,-9 -8,-16 -16,-16 -4,0 -9,2 -12,6 -18,21 -63,38 -97,38 -41,0 -53,-26 -53,-67 0,-35 11,-74 28,-94 5,-6 0,-13 -6,-13 -2,0 -4,0 -6,2 -45,54 -92,148 -92,202 z"
       transform="matrix(0.004,0,0,-0.004,10.3905,7.1786)" />
  </a>
  <path
     style="fill:currentColor;stroke-width:0.004"
     id="path2026"
     d="m 2.4367121,3.2253001 c -0.196,0 -0.3,-0.168 -0.3,-0.3 0,-0.152 0.108,-0.308 0.288,-0.308 0.016,0 0.036,0 0.056,0.004 -0.112,-0.148 -0.288,-0.236 -0.48,-0.236 -0.424,0 -0.452,0.292 -0.452,0.744 v 0.204 0.204 c 0,0.452 0.028,0.748 0.452,0.748 0.32,0 0.556,-0.28 0.632,-0.604 0.008,-0.028 0.028,-0.04 0.048,-0.04 0.024,0 0.052,0.016 0.052,0.048 0,0.376 -0.42,0.696 -0.732,0.696 -0.272,0 -0.548,-0.084 -0.736,-0.28 -0.196,-0.204 -0.264,-0.488 -0.264,-0.772 0,-0.284 0.068,-0.568 0.264,-0.772 0.188,-0.196 0.464,-0.276 0.736,-0.276 0.348,0 0.64,0.256 0.7,0.6 0.004,0.02 0.004,0.036 0.004,0.052 0,0.16 -0.12,0.288 -0.268,0.288 z" />
</svg>
