<?xml version="1.0" encoding="UTF-8" standalone="no"?>
<svg
   xmlns:dc="http://purl.org/dc/elements/1.1/"
   xmlns:cc="http://creativecommons.org/ns#"
   xmlns:rdf="http://www.w3.org/1999/02/22-rdf-syntax-ns#"
   xmlns:svg="http://www.w3.org/2000/svg"
   xmlns="http://www.w3.org/2000/svg"
   xmlns:xlink="http://www.w3.org/1999/xlink"
   id="svg1167"
   viewBox="0 0 45.211825 4.4820002"
   height="7.8762131mm"
   width="79.450684mm"
   version="1.2">
  <metadata
     id="metadata1173">
    <rdf:RDF>
      <cc:Work
         rdf:about="">
        <dc:format>image/svg+xml</dc:format>
        <dc:type
           rdf:resource="http://purl.org/dc/dcmitype/StillImage" />
        <dc:title></dc:title>
      </cc:Work>
    </rdf:RDF>
  </metadata>
  <defs
     id="defs1171" />
  <!-- Page: 1/1 -->
  <text
     y="-1"
     x="0.00071212446"
     style="font-size:2.20009995px;font-family:'Century Schoolbook L';text-anchor:start;fill:currentColor"
     id="text1039"
     font-size="2.2001">
    <tspan
       id="tspan1037" />
  </text>
  <line
     style="stroke:currentColor;stroke-width:0.1;stroke-linecap:round;stroke-linejoin:round"
     id="line1041"
     y2="3.4300001"
     x2="45.161114"
     y1="3.4300001"
     x1="0.050712124" />
  <rect
     style="fill:currentColor"
     id="rect1043"
     ry="0.0000"
     height="2.0999999"
     width="0.19"
     y="2.3800001"
     x="45.021111" />
  <a
     transform="translate(-5.6898879,-3.8453)"
     id="a1047"
     xlink:href="textedit:///Users/jyang/Documents/GitHub/dstyge/notation/dstyge_shaker_perc.ly:14:26:27"
     style="color:inherit">
    <path
       style="fill:currentColor"
       id="path1045"
       d="m 220,138 c 56,0 109,-29 109,-91 0,-72 -56,-121 -103,-149 -36,-21 -76,-36 -117,-36 -56,0 -109,29 -109,91 0,72 56,121 103,149 36,21 76,36 117,36 z"
       transform="matrix(0.004,0,0,-0.004,20.4553,7.2753)" />
  </a>
  <rect
     style="fill:currentColor"
     id="rect1049"
     ry="0.039999999"
     height="3.0021999"
     width="0.13"
     y="0.23999994"
     x="15.951512" />
  <a
     transform="translate(-5.6898879,-3.8453)"
     id="a1053"
     xlink:href="textedit:///Users/jyang/Documents/GitHub/dstyge/notation/dstyge_shaker_perc.ly:14:32:33"
     style="color:inherit">
    <path
       style="fill:currentColor"
       id="path1051"
       d="m 220,138 c 56,0 109,-29 109,-91 0,-72 -56,-121 -103,-149 -36,-21 -76,-36 -117,-36 -56,0 -109,29 -109,91 0,72 56,121 103,149 36,21 76,36 117,36 z"
       transform="matrix(0.004,0,0,-0.004,22.9714,7.2753)" />
  </a>
  <rect
     style="fill:currentColor"
     id="rect1055"
     ry="0.039999999"
     height="3.0021999"
     width="0.13"
     y="0.23999994"
     x="18.467712" />
  <rect
     style="fill:currentColor"
     id="rect1057"
     ry="0.039999999"
     height="3.0021999"
     width="0.13"
     y="0.23999994"
     x="13.435412" />
  <a
     transform="translate(-5.6898879,-3.8453)"
     id="a1061"
     xlink:href="textedit:///Users/jyang/Documents/GitHub/dstyge/notation/dstyge_shaker_perc.ly:14:22:23"
     style="color:inherit">
    <path
       style="fill:currentColor"
       id="path1059"
       d="m 220,138 c 56,0 109,-29 109,-91 0,-72 -56,-121 -103,-149 -36,-21 -76,-36 -117,-36 -56,0 -109,29 -109,91 0,72 56,121 103,149 36,21 76,36 117,36 z"
       transform="matrix(0.004,0,0,-0.004,17.9391,7.2753)" />
  </a>
  <rect
     style="fill:currentColor"
     id="rect1063"
     ry="0.039999999"
     height="3.0021999"
     width="0.13"
     y="0.23999994"
     x="10.919212" />
  <a
     transform="translate(-5.6898879,-3.8453)"
     id="a1067"
     xlink:href="textedit:///Users/jyang/Documents/GitHub/dstyge/notation/dstyge_shaker_perc.ly:14:16:17"
     style="color:inherit">
    <path
       style="fill:currentColor"
       id="path1065"
       d="m 220,138 c 56,0 109,-29 109,-91 0,-72 -56,-121 -103,-149 -36,-21 -76,-36 -117,-36 -56,0 -109,29 -109,91 0,72 56,121 103,149 36,21 76,36 117,36 z"
       transform="matrix(0.004,0,0,-0.004,15.4229,7.2753)" />
  </a>
  <rect
     style="fill:currentColor"
     id="rect1069"
     ry="0.039999999"
     height="3.0021999"
     width="0.13"
     y="0.23999994"
     x="8.4030123" />
  <a
     transform="translate(-5.6898879,-3.8453)"
     id="a1073"
     xlink:href="textedit:///Users/jyang/Documents/GitHub/dstyge/notation/dstyge_shaker_perc.ly:14:12:13"
     style="color:inherit">
    <path
       style="fill:currentColor"
       id="path1071"
       d="m 220,138 c 56,0 109,-29 109,-91 0,-72 -56,-121 -103,-149 -36,-21 -76,-36 -117,-36 -56,0 -109,29 -109,91 0,72 56,121 103,149 36,21 76,36 117,36 z"
       transform="matrix(0.004,0,0,-0.004,12.9067,7.2753)" />
  </a>
  <polygon
     style="fill:currentColor;stroke:currentColor;stroke-width:0.08;stroke-linecap:round;stroke-linejoin:round"
     id="polygon1075"
     points="0.04,0.2 0.04,-0.2 7.6385,-0.2 7.6385,0.2 "
     transform="translate(5.8868121,0.24)" />
  <polygon
     style="fill:currentColor;stroke:currentColor;stroke-width:0.08;stroke-linecap:round;stroke-linejoin:round"
     id="polygon1077"
     points="0.04,0.2 0.04,-0.2 7.6385,-0.2 7.6385,0.2 "
     transform="translate(5.8868121,1.05)" />
  <polygon
     style="fill:currentColor;stroke:currentColor;stroke-width:0.08;stroke-linecap:round;stroke-linejoin:round"
     id="polygon1079"
     points="0.04,0.2 0.04,-0.2 7.6385,-0.2 7.6385,0.2 "
     transform="translate(15.951512,0.24)" />
  <polygon
     style="fill:currentColor;stroke:currentColor;stroke-width:0.08;stroke-linecap:round;stroke-linejoin:round"
     id="polygon1081"
     points="0.04,0.2 0.04,-0.2 7.6385,-0.2 7.6385,0.2 "
     transform="translate(15.951512,1.05)" />
  <polygon
     style="fill:currentColor;stroke:currentColor;stroke-width:0.08;stroke-linecap:round;stroke-linejoin:round"
     id="polygon1083"
     points="0.04,0.2 0.04,-0.2 7.6385,-0.2 7.6385,0.2 "
     transform="translate(26.016212,0.24)" />
  <polygon
     style="fill:currentColor;stroke:currentColor;stroke-width:0.08;stroke-linecap:round;stroke-linejoin:round"
     id="polygon1085"
     points="0.04,0.2 0.04,-0.2 7.6385,-0.2 7.6385,0.2 "
     transform="translate(26.016212,1.05)" />
  <polygon
     style="fill:currentColor;stroke:currentColor;stroke-width:0.08;stroke-linecap:round;stroke-linejoin:round"
     id="polygon1087"
     points="0.04,0.2 0.04,-0.2 7.6385,-0.2 7.6385,0.2 "
     transform="translate(36.081012,0.24)" />
  <polygon
     style="fill:currentColor;stroke:currentColor;stroke-width:0.08;stroke-linecap:round;stroke-linejoin:round"
     id="polygon1089"
     points="0.04,0.2 0.04,-0.2 7.6385,-0.2 7.6385,0.2 "
     transform="translate(36.081012,1.05)" />
  <rect
     style="fill:currentColor"
     id="rect1091"
     ry="0.039999999"
     height="3.0021999"
     width="0.13"
     y="0.23999994"
     x="31.048613" />
  <a
     transform="translate(-5.6898879,-3.8453)"
     id="a1095"
     xlink:href="textedit:///Users/jyang/Documents/GitHub/dstyge/notation/dstyge_shaker_perc.ly:14:56:57"
     style="color:inherit">
    <path
       style="fill:currentColor"
       id="path1093"
       d="m 220,138 c 56,0 109,-29 109,-91 0,-72 -56,-121 -103,-149 -36,-21 -76,-36 -117,-36 -56,0 -109,29 -109,91 0,72 56,121 103,149 36,21 76,36 117,36 z"
       transform="matrix(0.004,0,0,-0.004,35.5523,7.2753)" />
  </a>
  <rect
     style="fill:currentColor"
     id="rect1097"
     ry="0.039999999"
     height="3.0021999"
     width="0.13"
     y="0.23999994"
     x="28.532412" />
  <a
     transform="translate(-5.6898879,-3.8453)"
     id="a1101"
     xlink:href="textedit:///Users/jyang/Documents/GitHub/dstyge/notation/dstyge_shaker_perc.ly:14:52:53"
     style="color:inherit">
    <path
       style="fill:currentColor"
       id="path1099"
       d="m 220,138 c 56,0 109,-29 109,-91 0,-72 -56,-121 -103,-149 -36,-21 -76,-36 -117,-36 -56,0 -109,29 -109,91 0,72 56,121 103,149 36,21 76,36 117,36 z"
       transform="matrix(0.004,0,0,-0.004,33.0361,7.2753)" />
  </a>
  <rect
     style="fill:currentColor"
     id="rect1103"
     ry="0.039999999"
     height="3.0021999"
     width="0.13"
     y="0.23999994"
     x="26.016212" />
  <a
     transform="translate(-5.6898879,-3.8453)"
     id="a1107"
     xlink:href="textedit:///Users/jyang/Documents/GitHub/dstyge/notation/dstyge_shaker_perc.ly:14:46:47"
     style="color:inherit">
    <path
       style="fill:currentColor"
       id="path1105"
       d="m 220,138 c 56,0 109,-29 109,-91 0,-72 -56,-121 -103,-149 -36,-21 -76,-36 -117,-36 -56,0 -109,29 -109,91 0,72 56,121 103,149 36,21 76,36 117,36 z"
       transform="matrix(0.004,0,0,-0.004,30.52,7.2753)" />
  </a>
  <rect
     style="fill:currentColor"
     id="rect1109"
     ry="0.039999999"
     height="3.0021999"
     width="0.13"
     y="0.23999994"
     x="23.500113" />
  <a
     transform="translate(-5.6898879,-3.8453)"
     id="a1113"
     xlink:href="textedit:///Users/jyang/Documents/GitHub/dstyge/notation/dstyge_shaker_perc.ly:14:42:43"
     style="color:inherit">
    <path
       style="fill:currentColor"
       id="path1111"
       d="m 220,138 c 56,0 109,-29 109,-91 0,-72 -56,-121 -103,-149 -36,-21 -76,-36 -117,-36 -56,0 -109,29 -109,91 0,72 56,121 103,149 36,21 76,36 117,36 z"
       transform="matrix(0.004,0,0,-0.004,28.0038,7.2753)" />
  </a>
  <rect
     style="fill:currentColor"
     id="rect1115"
     ry="0.039999999"
     height="3.0021999"
     width="0.13"
     y="0.23999994"
     x="20.983912" />
  <a
     transform="translate(-5.6898879,-3.8453)"
     id="a1119"
     xlink:href="textedit:///Users/jyang/Documents/GitHub/dstyge/notation/dstyge_shaker_perc.ly:14:36:37"
     style="color:inherit">
    <path
       style="fill:currentColor"
       id="path1117"
       d="m 220,138 c 56,0 109,-29 109,-91 0,-72 -56,-121 -103,-149 -36,-21 -76,-36 -117,-36 -56,0 -109,29 -109,91 0,72 56,121 103,149 36,21 76,36 117,36 z"
       transform="matrix(0.004,0,0,-0.004,25.4876,7.2753)" />
  </a>
  <rect
     style="fill:currentColor"
     id="rect1121"
     ry="0.039999999"
     height="3.0021999"
     width="0.13"
     y="0.23999994"
     x="36.081013" />
  <a
     transform="translate(-5.6898879,-3.8453)"
     id="a1125"
     xlink:href="textedit:///Users/jyang/Documents/GitHub/dstyge/notation/dstyge_shaker_perc.ly:14:66:67"
     style="color:inherit">
    <path
       style="fill:currentColor"
       id="path1123"
       d="m 220,138 c 56,0 109,-29 109,-91 0,-72 -56,-121 -103,-149 -36,-21 -76,-36 -117,-36 -56,0 -109,29 -109,91 0,72 56,121 103,149 36,21 76,36 117,36 z"
       transform="matrix(0.004,0,0,-0.004,40.5847,7.2753)" />
  </a>
  <rect
     style="fill:currentColor"
     id="rect1127"
     ry="0.039999999"
     height="3.0021999"
     width="0.13"
     y="0.23999994"
     x="33.564812" />
  <a
     transform="translate(-5.6898879,-3.8453)"
     id="a1131"
     xlink:href="textedit:///Users/jyang/Documents/GitHub/dstyge/notation/dstyge_shaker_perc.ly:14:62:63"
     style="color:inherit">
    <path
       style="fill:currentColor"
       id="path1129"
       d="m 220,138 c 56,0 109,-29 109,-91 0,-72 -56,-121 -103,-149 -36,-21 -76,-36 -117,-36 -56,0 -109,29 -109,91 0,72 56,121 103,149 36,21 76,36 117,36 z"
       transform="matrix(0.004,0,0,-0.004,38.0685,7.2753)" />
  </a>
  <rect
     style="fill:currentColor"
     id="rect1133"
     ry="0.039999999"
     height="3.0021999"
     width="0.13"
     y="0.23999994"
     x="5.8868122" />
  <path
     style="fill:currentColor;stroke-width:0.004"
     id="path1135"
     d="m 2.4367121,3.322 c -0.196,0 -0.3,-0.168 -0.3,-0.3 0,-0.152 0.108,-0.308 0.288,-0.308 0.016,0 0.036,0 0.056,0.004 -0.112,-0.148 -0.288,-0.236 -0.48,-0.236 -0.424,0 -0.452,0.292 -0.452,0.744 V 3.43 3.634 c 0,0.452 0.028,0.748 0.452,0.748 0.32,0 0.556,-0.28 0.632,-0.604 0.008,-0.028 0.028,-0.04 0.048,-0.04 0.024,0 0.052,0.016 0.052,0.048 0,0.376 -0.42,0.696 -0.732,0.696 -0.272,0 -0.548,-0.084 -0.736,-0.28 -0.196,-0.204 -0.264,-0.488 -0.264,-0.772 0,-0.284 0.068,-0.568 0.264,-0.772 0.188,-0.196 0.464,-0.276 0.736,-0.276 0.348,0 0.64,0.256 0.7,0.6 0.004,0.02 0.004,0.036 0.004,0.052 0,0.16 -0.12,0.288 -0.268,0.288 z" />
  <a
     transform="translate(-5.6898879,-3.8453)"
     id="a1139"
     xlink:href="textedit:///Users/jyang/Documents/GitHub/dstyge/notation/dstyge_shaker_perc.ly:14:6:7"
     style="color:inherit">
    <path
       style="fill:currentColor"
       id="path1137"
       d="m 220,138 c 56,0 109,-29 109,-91 0,-72 -56,-121 -103,-149 -36,-21 -76,-36 -117,-36 -56,0 -109,29 -109,91 0,72 56,121 103,149 36,21 76,36 117,36 z"
       transform="matrix(0.004,0,0,-0.004,10.3905,7.2753)" />
  </a>
  <rect
     style="fill:currentColor"
     id="rect1141"
     ry="0.039999999"
     height="3.0021999"
     width="0.13"
     y="0.23999994"
     x="43.629513" />
  <a
     transform="translate(-5.6898879,-3.8453)"
     id="a1145"
     xlink:href="textedit:///Users/jyang/Documents/GitHub/dstyge/notation/dstyge_shaker_perc.ly:14:82:83"
     style="color:inherit">
    <path
       style="fill:currentColor"
       id="path1143"
       d="m 220,138 c 56,0 109,-29 109,-91 0,-72 -56,-121 -103,-149 -36,-21 -76,-36 -117,-36 -56,0 -109,29 -109,91 0,72 56,121 103,149 36,21 76,36 117,36 z"
       transform="matrix(0.004,0,0,-0.004,48.1332,7.2753)" />
  </a>
  <rect
     style="fill:currentColor"
     id="rect1147"
     ry="0.039999999"
     height="3.0021999"
     width="0.13"
     y="0.23999994"
     x="41.113312" />
  <a
     transform="translate(-5.6898879,-3.8453)"
     id="a1151"
     xlink:href="textedit:///Users/jyang/Documents/GitHub/dstyge/notation/dstyge_shaker_perc.ly:14:76:77"
     style="color:inherit">
    <path
       style="fill:currentColor"
       id="path1149"
       d="m 220,138 c 56,0 109,-29 109,-91 0,-72 -56,-121 -103,-149 -36,-21 -76,-36 -117,-36 -56,0 -109,29 -109,91 0,72 56,121 103,149 36,21 76,36 117,36 z"
       transform="matrix(0.004,0,0,-0.004,45.617,7.2753)" />
  </a>
  <rect
     style="fill:currentColor"
     id="rect1153"
     ry="0.039999999"
     height="3.0021999"
     width="0.13"
     y="0.23999994"
     x="38.597111" />
  <a
     transform="translate(-5.6898879,-3.8453)"
     id="a1157"
     xlink:href="textedit:///Users/jyang/Documents/GitHub/dstyge/notation/dstyge_shaker_perc.ly:14:72:73"
     style="color:inherit">
    <path
       style="fill:currentColor"
       id="path1155"
       d="m 220,138 c 56,0 109,-29 109,-91 0,-72 -56,-121 -103,-149 -36,-21 -76,-36 -117,-36 -56,0 -109,29 -109,91 0,72 56,121 103,149 36,21 76,36 117,36 z"
       transform="matrix(0.004,0,0,-0.004,43.1009,7.2753)" />
  </a>
</svg>
