<svg xmlns="http://www.w3.org/2000/svg" xmlns:xlink="http://www.w3.org/1999/xlink" version="1.2" width="500.00mm" height="297.00mm" viewBox="0 0 284.5276 169.0094">
<!-- Page: 1/1 -->
<text transform="translate(5.6906, 2.8453)" font-family="Century Schoolbook L" font-size="2.2001" text-anchor="start" fill="currentColor">
<tspan>
 </tspan>
</text>
<line transform="translate(5.6906, 11.8826)" stroke-linejoin="round" stroke-linecap="round" stroke-width="0.1000" stroke="currentColor" x1="0.0500" y1="0.0000" x2="52.3452" y2="0.0000"/>
<line transform="translate(5.6906, 10.8826)" stroke-linejoin="round" stroke-linecap="round" stroke-width="0.1000" stroke="currentColor" x1="0.0500" y1="0.0000" x2="52.3452" y2="0.0000"/>
<line transform="translate(5.6906, 9.8826)" stroke-linejoin="round" stroke-linecap="round" stroke-width="0.1000" stroke="currentColor" x1="0.0500" y1="0.0000" x2="52.3452" y2="0.0000"/>
<line transform="translate(5.6906, 8.8826)" stroke-linejoin="round" stroke-linecap="round" stroke-width="0.1000" stroke="currentColor" x1="0.0500" y1="0.0000" x2="52.3452" y2="0.0000"/>
<line transform="translate(5.6906, 7.8826)" stroke-linejoin="round" stroke-linecap="round" stroke-width="0.1000" stroke="currentColor" x1="0.0500" y1="0.0000" x2="52.3452" y2="0.0000"/>
<rect transform="translate(57.8957, 9.8826)" x="0.0000" y="-2.0000" width="0.1900" height="4.0000" ry="0.0000" fill="currentColor"/>
<rect transform="translate(34.6410, 9.8826)" x="0.0000" y="-2.0000" width="0.1900" height="4.0000" ry="0.0000" fill="currentColor"/>
<path transform="translate(39.2610, 12.3426) scale(0.0040, -0.0040)" d="M0 0h-16v250h16c98 58 227 148 227 259c0 57 -16 112 -41 163c-3 16 10 27 23 27c7 0 15 -3 20 -11c25 -56 40 -117 40 -179c0 -204 -269 -305 -269 -509z" fill="currentColor"/>
<rect transform="translate(39.1960, 9.8826)" x="-0.0650" y="-0.8122" width="0.1300" height="3.3122" ry="0.0400" fill="currentColor"/>
<a style="color:inherit;" xlink:href="textedit://C:/Users/jwloy/OneDrive/Documents/GitHub/dstyge/notation/dstyge_cowbell.ly:16:36:37">
<path transform="translate(39.1310, 8.8826) scale(0.0040, -0.0040)" d="M220 138c56 0 109 -29 109 -91c0 -72 -56 -121 -103 -149c-36 -21 -76 -36 -117 -36c-56 0 -109 29 -109 91c0 72 56 121 103 149c36 21 76 36 117 36z" fill="currentColor"/>
</a>
<a style="color:inherit;" xlink:href="textedit://C:/Users/jwloy/OneDrive/Documents/GitHub/dstyge/notation/dstyge_cowbell.ly:16:33:34">
<path transform="translate(35.7310, 9.8826) scale(0.0040, -0.0040)" d="M72 -250l117 326c-34 -12 -69 -22 -105 -22c-46 0 -87 33 -87 79c0 40 33 72 73 72c25 0 48 -15 56 -39c10 -28 6 -59 35 -59c16 0 54 48 61 63c6 12 23 12 28 0l-123 -420c-8 -7 -17 -10 -27 -10s-20 3 -28 10z" fill="currentColor"/>
</a>
<a style="color:inherit;" xlink:href="textedit://C:/Users/jwloy/OneDrive/Documents/GitHub/dstyge/notation/dstyge_cowbell.ly:16:27:28">
<path transform="translate(30.0910, 9.8826) scale(0.0040, -0.0040)" d="M-23 -116c0 28 11 42 40 42c33 0 78 -13 119 -31l-132 158c-7 9 -10 17 -10 25c0 34 50 66 87 99c25 22 37 52 37 83c0 24 -8 49 -25 69l-35 42c-3 3 -4 7 -4 10c0 9 9 15 17 15c4 0 8 -1 11 -5l151 -180c7 -9 10 -17 10 -25c0 -34 -50 -66 -87 -99
c-25 -22 -37 -52 -37 -83c0 -24 7 -49 24 -69l84 -99c3 -3 4 -7 4 -10c0 -9 -8 -16 -16 -16c-4 0 -9 2 -12 6c-18 21 -63 38 -97 38c-41 0 -53 -26 -53 -67c0 -35 11 -74 28 -94c5 -6 0 -13 -6 -13c-2 0 -4 0 -6 2c-45 54 -92 148 -92 202z" fill="currentColor"/>
</a>
<polygon transform="translate(24.3429, 7.8826)" stroke-linejoin="round" stroke-linecap="round" stroke-width="0.0800" fill="currentColor" stroke="currentColor" points="4.5081 -0.2000 4.5081 0.2000 0.0400 0.2000 0.0400 -0.2000"/>
<polygon transform="translate(27.7260, 8.6926)" stroke-linejoin="round" stroke-linecap="round" stroke-width="0.0800" fill="currentColor" stroke="currentColor" points="1.1250 -0.2000 1.1250 0.2000 0.0400 0.2000 0.0400 -0.2000"/>
<polygon transform="translate(44.0334, 6.3826)" stroke-linejoin="round" stroke-linecap="round" stroke-width="0.0800" fill="currentColor" stroke="currentColor" points="6.3224 -0.2000 6.3224 0.2000 0.0400 0.2000 0.0400 -0.2000"/>
<polygon transform="translate(47.9996, 7.1926)" stroke-linejoin="round" stroke-linecap="round" stroke-width="0.0800" fill="currentColor" stroke="currentColor" points="2.3562 -0.2000 2.3562 0.2000 0.0400 0.2000 0.0400 -0.2000"/>
<a style="color:inherit;" xlink:href="textedit://C:/Users/jwloy/OneDrive/Documents/GitHub/dstyge/notation/dstyge_cowbell.ly:16:52:53">
<path transform="translate(51.5957, 9.8826) scale(0.0040, -0.0040)" d="M365 0h-355c-6 0 -10 4 -10 10v136c0 6 4 10 10 10h355c6 0 10 -4 10 -10v-136c0 -6 -4 -10 -10 -10z" fill="currentColor"/>
</a>
<rect transform="translate(50.3307, 9.8826)" x="-0.0650" y="-3.5000" width="0.1300" height="4.3122" ry="0.0400" fill="currentColor"/>
<a style="color:inherit;" xlink:href="textedit://C:/Users/jwloy/OneDrive/Documents/GitHub/dstyge/notation/dstyge_cowbell.ly:16:49:50">
<path transform="translate(49.0796, 10.8826) scale(0.0040, -0.0040)" d="M220 138c56 0 109 -29 109 -91c0 -72 -56 -121 -103 -149c-36 -21 -76 -36 -117 -36c-56 0 -109 29 -109 91c0 72 56 121 103 149c36 21 76 36 117 36z" fill="currentColor"/>
</a>
<rect transform="translate(48.0646, 9.8826)" x="-0.0650" y="-3.5000" width="0.1300" height="2.3122" ry="0.0400" fill="currentColor"/>
<a style="color:inherit;" xlink:href="textedit://C:/Users/jwloy/OneDrive/Documents/GitHub/dstyge/notation/dstyge_cowbell.ly:16:43:44">
<path transform="translate(46.8134, 8.8826) scale(0.0040, -0.0040)" d="M220 138c56 0 109 -29 109 -91c0 -72 -56 -121 -103 -149c-36 -21 -76 -36 -117 -36c-56 0 -109 29 -109 91c0 72 56 121 103 149c36 21 76 36 117 36z" fill="currentColor"/>
</a>
<rect transform="translate(44.0984, 9.8826)" x="-0.0650" y="-3.5000" width="0.1300" height="4.3122" ry="0.0400" fill="currentColor"/>
<a style="color:inherit;" xlink:href="textedit://C:/Users/jwloy/OneDrive/Documents/GitHub/dstyge/notation/dstyge_cowbell.ly:16:40:41">
<path transform="translate(42.8472, 10.8826) scale(0.0040, -0.0040)" d="M220 138c56 0 109 -29 109 -91c0 -72 -56 -121 -103 -149c-36 -21 -76 -36 -117 -36c-56 0 -109 29 -109 91c0 72 56 121 103 149c36 21 76 36 117 36z" fill="currentColor"/>
</a>
<path transform="translate(19.5705, 12.3426) scale(0.0040, -0.0040)" d="M0 0h-16v250h16c98 58 227 148 227 259c0 57 -16 112 -41 163c-3 16 10 27 23 27c7 0 15 -3 20 -11c25 -56 40 -117 40 -179c0 -204 -269 -305 -269 -509z" fill="currentColor"/>
<rect transform="translate(19.5055, 9.8826)" x="-0.0650" y="-0.8122" width="0.1300" height="3.3122" ry="0.0400" fill="currentColor"/>
<a style="color:inherit;" xlink:href="textedit://C:/Users/jwloy/OneDrive/Documents/GitHub/dstyge/notation/dstyge_cowbell.ly:16:12:13">
<path transform="translate(19.4405, 8.8826) scale(0.0040, -0.0040)" d="M220 138c56 0 109 -29 109 -91c0 -72 -56 -121 -103 -149c-36 -21 -76 -36 -117 -36c-56 0 -109 29 -109 91c0 72 56 121 103 149c36 21 76 36 117 36z" fill="currentColor"/>
</a>
<a style="color:inherit;" xlink:href="textedit://C:/Users/jwloy/OneDrive/Documents/GitHub/dstyge/notation/dstyge_cowbell.ly:16:6:7">
<path transform="translate(11.4906, 9.8826) scale(0.0040, -0.0040)" d="M-23 -116c0 28 11 42 40 42c33 0 78 -13 119 -31l-132 158c-7 9 -10 17 -10 25c0 34 50 66 87 99c25 22 37 52 37 83c0 24 -8 49 -25 69l-35 42c-3 3 -4 7 -4 10c0 9 9 15 17 15c4 0 8 -1 11 -5l151 -180c7 -9 10 -17 10 -25c0 -34 -50 -66 -87 -99
c-25 -22 -37 -52 -37 -83c0 -24 7 -49 24 -69l84 -99c3 -3 4 -7 4 -10c0 -9 -8 -16 -16 -16c-4 0 -9 2 -12 6c-18 21 -63 38 -97 38c-41 0 -53 -26 -53 -67c0 -35 11 -74 28 -94c5 -6 0 -13 -6 -13c-2 0 -4 0 -6 2c-45 54 -92 148 -92 202z" fill="currentColor"/>
</a>
<a style="color:inherit;" xlink:href="textedit://C:/Users/jwloy/OneDrive/Documents/GitHub/dstyge/notation/dstyge_cowbell.ly:16:9:10">
<path transform="translate(16.0405, 9.8826) scale(0.0040, -0.0040)" d="M72 -250l117 326c-34 -12 -69 -22 -105 -22c-46 0 -87 33 -87 79c0 40 33 72 73 72c25 0 48 -15 56 -39c10 -28 6 -59 35 -59c16 0 54 48 61 63c6 12 23 12 28 0l-123 -420c-8 -7 -17 -10 -27 -10s-20 3 -28 10z" fill="currentColor"/>
</a>
<path transform="translate(6.4906, 10.8826) scale(0.0040, -0.0040)" d="M376 262c4 0 9 1 13 1c155 0 256 -128 256 -261c0 -76 -33 -154 -107 -210c-22 -17 -47 -28 -73 -36c3 -35 5 -70 5 -105c0 -19 -1 -39 -2 -58c-7 -120 -90 -228 -208 -228c-108 0 -195 88 -195 197c0 58 53 103 112 103c54 0 95 -47 95 -103c0 -52 -43 -95 -95 -95
c-11 0 -21 2 -31 6c26 -39 68 -65 117 -65c96 0 157 92 163 191c1 18 2 37 2 55c0 31 -1 61 -4 92c-29 -5 -58 -8 -89 -8c-188 0 -333 172 -333 374c0 177 131 306 248 441c-19 62 -37 125 -45 190c-6 52 -7 104 -7 156c0 115 55 224 149 292c3 2 7 3 10 3c4 0 7 0 10 -3
c71 -84 133 -245 133 -358c0 -143 -86 -255 -180 -364c21 -68 39 -138 56 -207zM461 -203c68 24 113 95 113 164c0 90 -66 179 -173 190c24 -116 46 -231 60 -354zM74 28c0 -135 129 -247 264 -247c28 0 55 2 82 6c-14 127 -37 245 -63 364c-79 -8 -124 -61 -124 -119
c0 -44 25 -91 81 -123c5 -5 7 -10 7 -15c0 -11 -10 -22 -22 -22c-3 0 -6 1 -9 2c-80 43 -117 115 -117 185c0 88 58 174 160 197c-14 58 -29 117 -46 175c-107 -121 -213 -243 -213 -403zM408 1045c-99 -48 -162 -149 -162 -259c0 -74 18 -133 36 -194
c80 97 146 198 146 324c0 55 -4 79 -20 129z" fill="currentColor"/>
<a style="color:inherit;" xlink:href="textedit://C:/Users/jwloy/OneDrive/Documents/GitHub/dstyge/notation/dstyge_cowbell.ly:15:4:5">
<rect transform="translate(9.5556, 6.5373)" x="1.0563" y="-2.6727" width="0.1158" height="2.5113" ry="0.0193" fill="currentColor"/>
<path transform="translate(9.5556, 6.5373) scale(0.0036, -0.0036)" d="M217 139c57 0 112 -31 112 -94c0 -72 -55 -121 -102 -149c-35 -21 -74 -35 -115 -35c-57 0 -112 31 -112 94c0 72 55 121 102 149c35 21 74 35 115 35z" fill="currentColor"/>
<text transform="translate(10.7277, 7.0309)" font-family="Century Schoolbook L" font-size="2.2001" text-anchor="start" fill="currentColor">
<tspan>
 = 123</tspan>
</text>
</a>
<rect transform="translate(28.8260, 9.8826)" x="-0.0650" y="-2.0000" width="0.1300" height="2.8122" ry="0.0400" fill="currentColor"/>
<a style="color:inherit;" xlink:href="textedit://C:/Users/jwloy/OneDrive/Documents/GitHub/dstyge/notation/dstyge_cowbell.ly:16:22:23">
<path transform="translate(27.5749, 10.8826) scale(0.0040, -0.0040)" d="M220 138c56 0 109 -29 109 -91c0 -72 -56 -121 -103 -149c-36 -21 -76 -36 -117 -36c-56 0 -109 29 -109 91c0 72 56 121 103 149c36 21 76 36 117 36z" fill="currentColor"/>
</a>
<rect transform="translate(24.4079, 9.8826)" x="-0.0650" y="-2.0000" width="0.1300" height="2.8122" ry="0.0400" fill="currentColor"/>
<path transform="translate(24.9229, 10.3826) scale(0.0040, -0.0040)" d="M0 0c0 31 25 56 56 56s56 -25 56 -56s-25 -56 -56 -56s-56 25 -56 56z" fill="currentColor"/>
<a style="color:inherit;" xlink:href="textedit://C:/Users/jwloy/OneDrive/Documents/GitHub/dstyge/notation/dstyge_cowbell.ly:16:17:18">
<path transform="translate(23.1567, 10.8826) scale(0.0040, -0.0040)" d="M220 138c56 0 109 -29 109 -91c0 -72 -56 -121 -103 -149c-36 -21 -76 -36 -117 -36c-56 0 -109 29 -109 91c0 72 56 121 103 149c36 21 76 36 117 36z" fill="currentColor"/>
</a>
<a transform="translate(113.9760, 165.1512)" xlink:href="http://lilypond.org/">
<rect x="0.0000" y="-0.4439" width="56.5755" height="2.0827" fill="none" stroke="none" stroke-width="0.0"/>
</a>
<text transform="translate(113.9760, 165.1512)" font-family="Century Schoolbook L" font-size="2.2001" text-anchor="start" fill="currentColor">
<tspan>
Music engraving by LilyPond 2.18.2—www.lilypond.org</tspan>
</text>
</svg>
