<svg xmlns="http://www.w3.org/2000/svg" xmlns:xlink="http://www.w3.org/1999/xlink" version="1.2" width="500.00mm" height="297.00mm" viewBox="0 0 284.5276 169.0094">
<!-- Page: 1/1 -->
<text transform="translate(5.6906, 2.8453)" font-family="Century Schoolbook L" font-size="2.2001" text-anchor="start" fill="currentColor">
<tspan>
 </tspan>
</text>
<line transform="translate(5.6906, 7.2753)" stroke-linejoin="round" stroke-linecap="round" stroke-width="0.1000" stroke="currentColor" x1="0.0500" y1="-0.0000" x2="45.1604" y2="-0.0000"/>
<rect transform="translate(50.7110, 7.2753)" x="0.0000" y="-1.0500" width="0.1900" height="2.1000" ry="0.0000" fill="currentColor"/>
<a style="color:inherit;" xlink:href="textedit:///Users/jyang/Documents/GitHub/dstyge/notation/dstyge_shaker_perc.ly:14:26:27">
<path transform="translate(20.4553, 7.2753) scale(0.0040, -0.0040)" d="M220 138c56 0 109 -29 109 -91c0 -72 -56 -121 -103 -149c-36 -21 -76 -36 -117 -36c-56 0 -109 29 -109 91c0 72 56 121 103 149c36 21 76 36 117 36z" fill="currentColor"/>
</a>
<rect transform="translate(21.7064, 7.2753)" x="-0.0650" y="-3.1900" width="0.1300" height="3.0022" ry="0.0400" fill="currentColor"/>
<a style="color:inherit;" xlink:href="textedit:///Users/jyang/Documents/GitHub/dstyge/notation/dstyge_shaker_perc.ly:14:32:33">
<path transform="translate(22.9714, 7.2753) scale(0.0040, -0.0040)" d="M220 138c56 0 109 -29 109 -91c0 -72 -56 -121 -103 -149c-36 -21 -76 -36 -117 -36c-56 0 -109 29 -109 91c0 72 56 121 103 149c36 21 76 36 117 36z" fill="currentColor"/>
</a>
<rect transform="translate(24.2226, 7.2753)" x="-0.0650" y="-3.1900" width="0.1300" height="3.0022" ry="0.0400" fill="currentColor"/>
<rect transform="translate(19.1903, 7.2753)" x="-0.0650" y="-3.1900" width="0.1300" height="3.0022" ry="0.0400" fill="currentColor"/>
<a style="color:inherit;" xlink:href="textedit:///Users/jyang/Documents/GitHub/dstyge/notation/dstyge_shaker_perc.ly:14:22:23">
<path transform="translate(17.9391, 7.2753) scale(0.0040, -0.0040)" d="M220 138c56 0 109 -29 109 -91c0 -72 -56 -121 -103 -149c-36 -21 -76 -36 -117 -36c-56 0 -109 29 -109 91c0 72 56 121 103 149c36 21 76 36 117 36z" fill="currentColor"/>
</a>
<rect transform="translate(16.6741, 7.2753)" x="-0.0650" y="-3.1900" width="0.1300" height="3.0022" ry="0.0400" fill="currentColor"/>
<a style="color:inherit;" xlink:href="textedit:///Users/jyang/Documents/GitHub/dstyge/notation/dstyge_shaker_perc.ly:14:16:17">
<path transform="translate(15.4229, 7.2753) scale(0.0040, -0.0040)" d="M220 138c56 0 109 -29 109 -91c0 -72 -56 -121 -103 -149c-36 -21 -76 -36 -117 -36c-56 0 -109 29 -109 91c0 72 56 121 103 149c36 21 76 36 117 36z" fill="currentColor"/>
</a>
<rect transform="translate(14.1579, 7.2753)" x="-0.0650" y="-3.1900" width="0.1300" height="3.0022" ry="0.0400" fill="currentColor"/>
<a style="color:inherit;" xlink:href="textedit:///Users/jyang/Documents/GitHub/dstyge/notation/dstyge_shaker_perc.ly:14:12:13">
<path transform="translate(12.9067, 7.2753) scale(0.0040, -0.0040)" d="M220 138c56 0 109 -29 109 -91c0 -72 -56 -121 -103 -149c-36 -21 -76 -36 -117 -36c-56 0 -109 29 -109 91c0 72 56 121 103 149c36 21 76 36 117 36z" fill="currentColor"/>
</a>
<polygon transform="translate(11.5767, 4.0853)" stroke-linejoin="round" stroke-linecap="round" stroke-width="0.0800" fill="currentColor" stroke="currentColor" points="7.6385 -0.2000 7.6385 0.2000 0.0400 0.2000 0.0400 -0.2000"/>
<polygon transform="translate(11.5767, 4.8953)" stroke-linejoin="round" stroke-linecap="round" stroke-width="0.0800" fill="currentColor" stroke="currentColor" points="7.6385 -0.2000 7.6385 0.2000 0.0400 0.2000 0.0400 -0.2000"/>
<polygon transform="translate(21.6414, 4.0853)" stroke-linejoin="round" stroke-linecap="round" stroke-width="0.0800" fill="currentColor" stroke="currentColor" points="7.6385 -0.2000 7.6385 0.2000 0.0400 0.2000 0.0400 -0.2000"/>
<polygon transform="translate(21.6414, 4.8953)" stroke-linejoin="round" stroke-linecap="round" stroke-width="0.0800" fill="currentColor" stroke="currentColor" points="7.6385 -0.2000 7.6385 0.2000 0.0400 0.2000 0.0400 -0.2000"/>
<polygon transform="translate(31.7061, 4.0853)" stroke-linejoin="round" stroke-linecap="round" stroke-width="0.0800" fill="currentColor" stroke="currentColor" points="7.6385 -0.2000 7.6385 0.2000 0.0400 0.2000 0.0400 -0.2000"/>
<polygon transform="translate(31.7061, 4.8953)" stroke-linejoin="round" stroke-linecap="round" stroke-width="0.0800" fill="currentColor" stroke="currentColor" points="7.6385 -0.2000 7.6385 0.2000 0.0400 0.2000 0.0400 -0.2000"/>
<polygon transform="translate(41.7709, 4.0853)" stroke-linejoin="round" stroke-linecap="round" stroke-width="0.0800" fill="currentColor" stroke="currentColor" points="7.6385 -0.2000 7.6385 0.2000 0.0400 0.2000 0.0400 -0.2000"/>
<polygon transform="translate(41.7709, 4.8953)" stroke-linejoin="round" stroke-linecap="round" stroke-width="0.0800" fill="currentColor" stroke="currentColor" points="7.6385 -0.2000 7.6385 0.2000 0.0400 0.2000 0.0400 -0.2000"/>
<rect transform="translate(36.8035, 7.2753)" x="-0.0650" y="-3.1900" width="0.1300" height="3.0022" ry="0.0400" fill="currentColor"/>
<a style="color:inherit;" xlink:href="textedit:///Users/jyang/Documents/GitHub/dstyge/notation/dstyge_shaker_perc.ly:14:56:57">
<path transform="translate(35.5523, 7.2753) scale(0.0040, -0.0040)" d="M220 138c56 0 109 -29 109 -91c0 -72 -56 -121 -103 -149c-36 -21 -76 -36 -117 -36c-56 0 -109 29 -109 91c0 72 56 121 103 149c36 21 76 36 117 36z" fill="currentColor"/>
</a>
<rect transform="translate(34.2873, 7.2753)" x="-0.0650" y="-3.1900" width="0.1300" height="3.0022" ry="0.0400" fill="currentColor"/>
<a style="color:inherit;" xlink:href="textedit:///Users/jyang/Documents/GitHub/dstyge/notation/dstyge_shaker_perc.ly:14:52:53">
<path transform="translate(33.0361, 7.2753) scale(0.0040, -0.0040)" d="M220 138c56 0 109 -29 109 -91c0 -72 -56 -121 -103 -149c-36 -21 -76 -36 -117 -36c-56 0 -109 29 -109 91c0 72 56 121 103 149c36 21 76 36 117 36z" fill="currentColor"/>
</a>
<rect transform="translate(31.7711, 7.2753)" x="-0.0650" y="-3.1900" width="0.1300" height="3.0022" ry="0.0400" fill="currentColor"/>
<a style="color:inherit;" xlink:href="textedit:///Users/jyang/Documents/GitHub/dstyge/notation/dstyge_shaker_perc.ly:14:46:47">
<path transform="translate(30.5200, 7.2753) scale(0.0040, -0.0040)" d="M220 138c56 0 109 -29 109 -91c0 -72 -56 -121 -103 -149c-36 -21 -76 -36 -117 -36c-56 0 -109 29 -109 91c0 72 56 121 103 149c36 21 76 36 117 36z" fill="currentColor"/>
</a>
<rect transform="translate(29.2550, 7.2753)" x="-0.0650" y="-3.1900" width="0.1300" height="3.0022" ry="0.0400" fill="currentColor"/>
<a style="color:inherit;" xlink:href="textedit:///Users/jyang/Documents/GitHub/dstyge/notation/dstyge_shaker_perc.ly:14:42:43">
<path transform="translate(28.0038, 7.2753) scale(0.0040, -0.0040)" d="M220 138c56 0 109 -29 109 -91c0 -72 -56 -121 -103 -149c-36 -21 -76 -36 -117 -36c-56 0 -109 29 -109 91c0 72 56 121 103 149c36 21 76 36 117 36z" fill="currentColor"/>
</a>
<rect transform="translate(26.7388, 7.2753)" x="-0.0650" y="-3.1900" width="0.1300" height="3.0022" ry="0.0400" fill="currentColor"/>
<a style="color:inherit;" xlink:href="textedit:///Users/jyang/Documents/GitHub/dstyge/notation/dstyge_shaker_perc.ly:14:36:37">
<path transform="translate(25.4876, 7.2753) scale(0.0040, -0.0040)" d="M220 138c56 0 109 -29 109 -91c0 -72 -56 -121 -103 -149c-36 -21 -76 -36 -117 -36c-56 0 -109 29 -109 91c0 72 56 121 103 149c36 21 76 36 117 36z" fill="currentColor"/>
</a>
<rect transform="translate(41.8359, 7.2753)" x="-0.0650" y="-3.1900" width="0.1300" height="3.0022" ry="0.0400" fill="currentColor"/>
<a style="color:inherit;" xlink:href="textedit:///Users/jyang/Documents/GitHub/dstyge/notation/dstyge_shaker_perc.ly:14:66:67">
<path transform="translate(40.5847, 7.2753) scale(0.0040, -0.0040)" d="M220 138c56 0 109 -29 109 -91c0 -72 -56 -121 -103 -149c-36 -21 -76 -36 -117 -36c-56 0 -109 29 -109 91c0 72 56 121 103 149c36 21 76 36 117 36z" fill="currentColor"/>
</a>
<rect transform="translate(39.3197, 7.2753)" x="-0.0650" y="-3.1900" width="0.1300" height="3.0022" ry="0.0400" fill="currentColor"/>
<a style="color:inherit;" xlink:href="textedit:///Users/jyang/Documents/GitHub/dstyge/notation/dstyge_shaker_perc.ly:14:62:63">
<path transform="translate(38.0685, 7.2753) scale(0.0040, -0.0040)" d="M220 138c56 0 109 -29 109 -91c0 -72 -56 -121 -103 -149c-36 -21 -76 -36 -117 -36c-56 0 -109 29 -109 91c0 72 56 121 103 149c36 21 76 36 117 36z" fill="currentColor"/>
</a>
<rect transform="translate(11.6417, 7.2753)" x="-0.0650" y="-3.1900" width="0.1300" height="3.0022" ry="0.0400" fill="currentColor"/>
<path transform="translate(6.6906, 7.2753) scale(0.0040, -0.0040)" d="M359 27c-49 0 -75 42 -75 75c0 38 27 77 72 77c4 0 9 0 14 -1c-28 37 -72 59 -120 59c-106 0 -113 -73 -113 -186v-51v-51c0 -113 7 -187 113 -187c80 0 139 70 158 151c2 7 7 10 12 10c6 0 13 -4 13 -12c0 -94 -105 -174 -183 -174c-68 0 -137 21 -184 70
c-49 51 -66 122 -66 193s17 142 66 193c47 49 116 69 184 69c87 0 160 -64 175 -150c1 -5 1 -9 1 -13c0 -40 -30 -72 -67 -72z" fill="currentColor"/>
<a style="color:inherit;" xlink:href="textedit:///Users/jyang/Documents/GitHub/dstyge/notation/dstyge_shaker_perc.ly:14:6:7">
<path transform="translate(10.3905, 7.2753) scale(0.0040, -0.0040)" d="M220 138c56 0 109 -29 109 -91c0 -72 -56 -121 -103 -149c-36 -21 -76 -36 -117 -36c-56 0 -109 29 -109 91c0 72 56 121 103 149c36 21 76 36 117 36z" fill="currentColor"/>
</a>
<rect transform="translate(49.3844, 7.2753)" x="-0.0650" y="-3.1900" width="0.1300" height="3.0022" ry="0.0400" fill="currentColor"/>
<a style="color:inherit;" xlink:href="textedit:///Users/jyang/Documents/GitHub/dstyge/notation/dstyge_shaker_perc.ly:14:82:83">
<path transform="translate(48.1332, 7.2753) scale(0.0040, -0.0040)" d="M220 138c56 0 109 -29 109 -91c0 -72 -56 -121 -103 -149c-36 -21 -76 -36 -117 -36c-56 0 -109 29 -109 91c0 72 56 121 103 149c36 21 76 36 117 36z" fill="currentColor"/>
</a>
<rect transform="translate(46.8682, 7.2753)" x="-0.0650" y="-3.1900" width="0.1300" height="3.0022" ry="0.0400" fill="currentColor"/>
<a style="color:inherit;" xlink:href="textedit:///Users/jyang/Documents/GitHub/dstyge/notation/dstyge_shaker_perc.ly:14:76:77">
<path transform="translate(45.6170, 7.2753) scale(0.0040, -0.0040)" d="M220 138c56 0 109 -29 109 -91c0 -72 -56 -121 -103 -149c-36 -21 -76 -36 -117 -36c-56 0 -109 29 -109 91c0 72 56 121 103 149c36 21 76 36 117 36z" fill="currentColor"/>
</a>
<rect transform="translate(44.3520, 7.2753)" x="-0.0650" y="-3.1900" width="0.1300" height="3.0022" ry="0.0400" fill="currentColor"/>
<a style="color:inherit;" xlink:href="textedit:///Users/jyang/Documents/GitHub/dstyge/notation/dstyge_shaker_perc.ly:14:72:73">
<path transform="translate(43.1009, 7.2753) scale(0.0040, -0.0040)" d="M220 138c56 0 109 -29 109 -91c0 -72 -56 -121 -103 -149c-36 -21 -76 -36 -117 -36c-56 0 -109 29 -109 91c0 72 56 121 103 149c36 21 76 36 117 36z" fill="currentColor"/>
</a>
<a transform="translate(113.9760, 165.1512)" xlink:href="http://lilypond.org/">
<rect x="0.0000" y="-0.4439" width="56.5755" height="2.0827" fill="none" stroke="none" stroke-width="0.0"/>
</a>
<text transform="translate(113.9760, 165.1512)" font-family="Century Schoolbook L" font-size="2.2001" text-anchor="start" fill="currentColor">
<tspan>
Music engraving by LilyPond 2.18.2—www.lilypond.org</tspan>
</text>
</svg>
