<svg xmlns="http://www.w3.org/2000/svg" xmlns:xlink="http://www.w3.org/1999/xlink" version="1.2" width="500.00mm" height="297.00mm" viewBox="0 0 284.5276 169.0094">
<!-- Page: 1/1 -->
<text transform="translate(5.6906, 2.8453)" font-family="Century Schoolbook L" font-size="2.2001" text-anchor="start" fill="currentColor">
<tspan>
 </tspan>
</text>
<rect transform="translate(5.6906, 12.8826)" x="5.4710" y="-0.1000" width="1.9743" height="0.2000" ry="0.1000" fill="currentColor"/>
<rect transform="translate(5.6906, 13.8826)" x="5.4710" y="-0.1000" width="1.9743" height="0.2000" ry="0.1000" fill="currentColor"/>
<rect transform="translate(5.6906, 14.8826)" x="5.4710" y="-0.1000" width="1.9743" height="0.2000" ry="0.1000" fill="currentColor"/>
<rect transform="translate(5.6906, 15.8826)" x="5.4710" y="-0.1000" width="1.9743" height="0.2000" ry="0.1000" fill="currentColor"/>
<rect transform="translate(5.6906, 16.8826)" x="5.4710" y="-0.1000" width="1.9743" height="0.2000" ry="0.1000" fill="currentColor"/>
<rect transform="translate(5.6906, 17.8826)" x="5.4710" y="-0.1000" width="1.9743" height="0.2000" ry="0.1000" fill="currentColor"/>
<rect transform="translate(5.6906, 18.8826)" x="5.4710" y="-0.1000" width="1.9743" height="0.2000" ry="0.1000" fill="currentColor"/>
<rect transform="translate(5.6906, 19.8826)" x="5.4710" y="-0.1000" width="1.9743" height="0.2000" ry="0.1000" fill="currentColor"/>
<rect transform="translate(5.6906, 12.8826)" x="9.8891" y="-0.1000" width="1.9743" height="0.2000" ry="0.1000" fill="currentColor"/>
<rect transform="translate(5.6906, 13.8826)" x="9.8891" y="-0.1000" width="1.9743" height="0.2000" ry="0.1000" fill="currentColor"/>
<rect transform="translate(5.6906, 14.8826)" x="9.8891" y="-0.1000" width="1.9743" height="0.2000" ry="0.1000" fill="currentColor"/>
<rect transform="translate(5.6906, 15.8826)" x="9.8891" y="-0.1000" width="1.9743" height="0.2000" ry="0.1000" fill="currentColor"/>
<rect transform="translate(5.6906, 16.8826)" x="9.8891" y="-0.1000" width="1.9743" height="0.2000" ry="0.1000" fill="currentColor"/>
<rect transform="translate(5.6906, 17.8826)" x="9.8891" y="-0.1000" width="1.9743" height="0.2000" ry="0.1000" fill="currentColor"/>
<rect transform="translate(5.6906, 18.8826)" x="9.8891" y="-0.1000" width="1.9743" height="0.2000" ry="0.1000" fill="currentColor"/>
<rect transform="translate(5.6906, 19.8826)" x="9.8891" y="-0.1000" width="1.9743" height="0.2000" ry="0.1000" fill="currentColor"/>
<rect transform="translate(5.6906, 12.8826)" x="12.4053" y="-0.1000" width="1.9743" height="0.2000" ry="0.1000" fill="currentColor"/>
<rect transform="translate(5.6906, 13.8826)" x="12.4053" y="-0.1000" width="1.9743" height="0.2000" ry="0.1000" fill="currentColor"/>
<rect transform="translate(5.6906, 14.8826)" x="12.4053" y="-0.1000" width="1.9743" height="0.2000" ry="0.1000" fill="currentColor"/>
<rect transform="translate(5.6906, 15.8826)" x="12.4053" y="-0.1000" width="1.9743" height="0.2000" ry="0.1000" fill="currentColor"/>
<rect transform="translate(5.6906, 16.8826)" x="12.4053" y="-0.1000" width="1.9743" height="0.2000" ry="0.1000" fill="currentColor"/>
<rect transform="translate(5.6906, 17.8826)" x="12.4053" y="-0.1000" width="1.9743" height="0.2000" ry="0.1000" fill="currentColor"/>
<rect transform="translate(5.6906, 18.8826)" x="12.4053" y="-0.1000" width="1.9743" height="0.2000" ry="0.1000" fill="currentColor"/>
<rect transform="translate(5.6906, 12.8826)" x="16.8234" y="-0.1000" width="1.9743" height="0.2000" ry="0.1000" fill="currentColor"/>
<rect transform="translate(5.6906, 13.8826)" x="16.8234" y="-0.1000" width="1.9743" height="0.2000" ry="0.1000" fill="currentColor"/>
<rect transform="translate(5.6906, 14.8826)" x="16.8234" y="-0.1000" width="1.9743" height="0.2000" ry="0.1000" fill="currentColor"/>
<rect transform="translate(5.6906, 15.8826)" x="16.8234" y="-0.1000" width="1.9743" height="0.2000" ry="0.1000" fill="currentColor"/>
<rect transform="translate(5.6906, 16.8826)" x="16.8234" y="-0.1000" width="1.9743" height="0.2000" ry="0.1000" fill="currentColor"/>
<rect transform="translate(5.6906, 17.8826)" x="16.8234" y="-0.1000" width="1.9743" height="0.2000" ry="0.1000" fill="currentColor"/>
<rect transform="translate(5.6906, 18.8826)" x="16.8234" y="-0.1000" width="1.9743" height="0.2000" ry="0.1000" fill="currentColor"/>
<rect transform="translate(5.6906, 19.8826)" x="16.8234" y="-0.1000" width="1.9743" height="0.2000" ry="0.1000" fill="currentColor"/>
<rect transform="translate(5.6906, 12.8826)" x="19.3396" y="-0.1000" width="1.9743" height="0.2000" ry="0.1000" fill="currentColor"/>
<rect transform="translate(5.6906, 13.8826)" x="19.3396" y="-0.1000" width="1.9743" height="0.2000" ry="0.1000" fill="currentColor"/>
<rect transform="translate(5.6906, 14.8826)" x="19.3396" y="-0.1000" width="1.9743" height="0.2000" ry="0.1000" fill="currentColor"/>
<rect transform="translate(5.6906, 15.8826)" x="19.3396" y="-0.1000" width="1.9743" height="0.2000" ry="0.1000" fill="currentColor"/>
<rect transform="translate(5.6906, 16.8826)" x="19.3396" y="-0.1000" width="1.9743" height="0.2000" ry="0.1000" fill="currentColor"/>
<rect transform="translate(5.6906, 17.8826)" x="19.3396" y="-0.1000" width="1.9743" height="0.2000" ry="0.1000" fill="currentColor"/>
<rect transform="translate(5.6906, 18.8826)" x="19.3396" y="-0.1000" width="1.9743" height="0.2000" ry="0.1000" fill="currentColor"/>
<rect transform="translate(5.6906, 19.8826)" x="19.3396" y="-0.1000" width="1.9743" height="0.2000" ry="0.1000" fill="currentColor"/>
<rect transform="translate(5.6906, 12.8826)" x="24.2558" y="-0.1000" width="1.9743" height="0.2000" ry="0.1000" fill="currentColor"/>
<rect transform="translate(5.6906, 13.8826)" x="24.2558" y="-0.1000" width="1.9743" height="0.2000" ry="0.1000" fill="currentColor"/>
<rect transform="translate(5.6906, 14.8826)" x="24.2558" y="-0.1000" width="1.9743" height="0.2000" ry="0.1000" fill="currentColor"/>
<rect transform="translate(5.6906, 15.8826)" x="24.2558" y="-0.1000" width="1.9743" height="0.2000" ry="0.1000" fill="currentColor"/>
<rect transform="translate(5.6906, 16.8826)" x="24.2558" y="-0.1000" width="1.9743" height="0.2000" ry="0.1000" fill="currentColor"/>
<rect transform="translate(5.6906, 17.8826)" x="24.2558" y="-0.1000" width="1.9743" height="0.2000" ry="0.1000" fill="currentColor"/>
<rect transform="translate(5.6906, 18.8826)" x="24.2558" y="-0.1000" width="1.9743" height="0.2000" ry="0.1000" fill="currentColor"/>
<line transform="translate(5.6906, 11.8826)" stroke-linejoin="round" stroke-linecap="round" stroke-width="0.1000" stroke="currentColor" x1="0.0500" y1="-0.0000" x2="29.7838" y2="-0.0000"/>
<line transform="translate(5.6906, 10.8826)" stroke-linejoin="round" stroke-linecap="round" stroke-width="0.1000" stroke="currentColor" x1="0.0500" y1="-0.0000" x2="29.7838" y2="-0.0000"/>
<line transform="translate(5.6906, 9.8826)" stroke-linejoin="round" stroke-linecap="round" stroke-width="0.1000" stroke="currentColor" x1="0.0500" y1="-0.0000" x2="29.7838" y2="-0.0000"/>
<line transform="translate(5.6906, 8.8826)" stroke-linejoin="round" stroke-linecap="round" stroke-width="0.1000" stroke="currentColor" x1="0.0500" y1="-0.0000" x2="29.7838" y2="-0.0000"/>
<line transform="translate(5.6906, 7.8826)" stroke-linejoin="round" stroke-linecap="round" stroke-width="0.1000" stroke="currentColor" x1="0.0500" y1="-0.0000" x2="29.7838" y2="-0.0000"/>
<rect transform="translate(35.3344, 9.8826)" x="0.0000" y="-2.0000" width="0.1900" height="4.0000" ry="0.0000" fill="currentColor"/>
<rect transform="translate(19.6760, 9.8826)" x="-0.0650" y="-0.1873" width="0.1300" height="9.4995" ry="0.0400" fill="currentColor"/>
<path transform="translate(20.1910, 19.3826) scale(0.0040, -0.0040)" d="M0 0c0 31 25 56 56 56s56 -25 56 -56s-25 -56 -56 -56s-56 25 -56 56z" fill="currentColor"/>
<a style="color:inherit;" xlink:href="textedit:///Users/jyang/Documents/GitHub/dstyge/dstyge_kit.ly:16:21:22">
<path transform="translate(18.4249, 19.3826) scale(0.0040, -0.0040)" d="M220 138c56 0 109 -29 109 -91c0 -72 -56 -121 -103 -149c-36 -21 -76 -36 -117 -36c-56 0 -109 29 -109 91c0 72 56 121 103 149c36 21 76 36 117 36z" fill="currentColor"/>
</a>
<rect transform="translate(17.1599, 9.8826)" x="-0.0650" y="-0.0000" width="0.1300" height="9.8122" ry="0.0400" fill="currentColor"/>
<a style="color:inherit;" xlink:href="textedit:///Users/jyang/Documents/GitHub/dstyge/dstyge_kit.ly:16:16:17">
<path transform="translate(15.9087, 19.8826) scale(0.0040, -0.0040)" d="M220 138c56 0 109 -29 109 -91c0 -72 -56 -121 -103 -149c-36 -21 -76 -36 -117 -36c-56 0 -109 29 -109 91c0 72 56 121 103 149c36 21 76 36 117 36z" fill="currentColor"/>
</a>
<polygon transform="translate(12.6767, 9.8826)" stroke-linejoin="round" stroke-linecap="round" stroke-width="0.0800" fill="currentColor" stroke="currentColor" points="4.5081 -0.2000 4.5081 0.2000 0.0400 0.2000 0.0400 -0.2000"/>
<polygon transform="translate(16.0599, 10.6926)" stroke-linejoin="round" stroke-linecap="round" stroke-width="0.0800" fill="currentColor" stroke="currentColor" points="1.1250 -0.2000 1.1250 0.2000 0.0400 0.2000 0.0400 -0.2000"/>
<polygon transform="translate(19.6110, 9.6926)" stroke-linejoin="round" stroke-linecap="round" stroke-width="0.0800" fill="currentColor" stroke="currentColor" points="4.5081 -0.0100 4.5081 0.3900 0.0400 0.2000 0.0400 -0.2000"/>
<polygon transform="translate(22.9942, 10.6439)" stroke-linejoin="round" stroke-linecap="round" stroke-width="0.0800" fill="currentColor" stroke="currentColor" points="1.1250 -0.1513 1.1250 0.2487 0.0400 0.2000 0.0400 -0.2000"/>
<rect transform="translate(26.6104, 9.8826)" x="-0.0650" y="-0.0000" width="0.1300" height="9.8122" ry="0.0400" fill="currentColor"/>
<a style="color:inherit;" xlink:href="textedit:///Users/jyang/Documents/GitHub/dstyge/dstyge_kit.ly:16:31:32">
<path transform="translate(25.3592, 19.8826) scale(0.0040, -0.0040)" d="M220 138c56 0 109 -29 109 -91c0 -72 -56 -121 -103 -149c-36 -21 -76 -36 -117 -36c-56 0 -109 29 -109 91c0 72 56 121 103 149c36 21 76 36 117 36z" fill="currentColor"/>
</a>
<rect transform="translate(24.0942, 9.8826)" x="-0.0650" y="-0.0027" width="0.1300" height="9.8149" ry="0.0400" fill="currentColor"/>
<a style="color:inherit;" xlink:href="textedit:///Users/jyang/Documents/GitHub/dstyge/dstyge_kit.ly:16:26:27">
<path transform="translate(22.8430, 19.8826) scale(0.0040, -0.0040)" d="M220 138c56 0 109 -29 109 -91c0 -72 -56 -121 -103 -149c-36 -21 -76 -36 -117 -36c-56 0 -109 29 -109 91c0 72 56 121 103 149c36 21 76 36 117 36z" fill="currentColor"/>
</a>
<rect transform="translate(12.7417, 9.8826)" x="-0.0650" y="-0.0000" width="0.1300" height="9.8122" ry="0.0400" fill="currentColor"/>
<path transform="translate(13.2567, 19.3826) scale(0.0040, -0.0040)" d="M0 0c0 31 25 56 56 56s56 -25 56 -56s-25 -56 -56 -56s-56 25 -56 56z" fill="currentColor"/>
<a style="color:inherit;" xlink:href="textedit:///Users/jyang/Documents/GitHub/dstyge/dstyge_kit.ly:15:4:5">
<rect transform="translate(9.5556, 6.5373)" x="1.0563" y="-2.6727" width="0.1158" height="2.5113" ry="0.0193" fill="currentColor"/>
<path transform="translate(9.5556, 6.5373) scale(0.0036, -0.0036)" d="M217 139c57 0 112 -31 112 -94c0 -72 -55 -121 -102 -149c-35 -21 -74 -35 -115 -35c-57 0 -112 31 -112 94c0 72 55 121 102 149c35 21 74 35 115 35z" fill="currentColor"/>
<text transform="translate(10.7277, 7.0309)" font-family="Century Schoolbook L" font-size="2.2001" text-anchor="start" fill="currentColor">
<tspan>
 = 123</tspan>
</text>
</a>
<path transform="translate(6.4906, 10.8826) scale(0.0040, -0.0040)" d="M376 262c4 0 9 1 13 1c155 0 256 -128 256 -261c0 -76 -33 -154 -107 -210c-22 -17 -47 -28 -73 -36c3 -35 5 -70 5 -105c0 -19 -1 -39 -2 -58c-7 -120 -90 -228 -208 -228c-108 0 -195 88 -195 197c0 58 53 103 112 103c54 0 95 -47 95 -103c0 -52 -43 -95 -95 -95
c-11 0 -21 2 -31 6c26 -39 68 -65 117 -65c96 0 157 92 163 191c1 18 2 37 2 55c0 31 -1 61 -4 92c-29 -5 -58 -8 -89 -8c-188 0 -333 172 -333 374c0 177 131 306 248 441c-19 62 -37 125 -45 190c-6 52 -7 104 -7 156c0 115 55 224 149 292c3 2 7 3 10 3c4 0 7 0 10 -3
c71 -84 133 -245 133 -358c0 -143 -86 -255 -180 -364c21 -68 39 -138 56 -207zM461 -203c68 24 113 95 113 164c0 90 -66 179 -173 190c24 -116 46 -231 60 -354zM74 28c0 -135 129 -247 264 -247c28 0 55 2 82 6c-14 127 -37 245 -63 364c-79 -8 -124 -61 -124 -119
c0 -44 25 -91 81 -123c5 -5 7 -10 7 -15c0 -11 -10 -22 -22 -22c-3 0 -6 1 -9 2c-80 43 -117 115 -117 185c0 88 58 174 160 197c-14 58 -29 117 -46 175c-107 -121 -213 -243 -213 -403zM408 1045c-99 -48 -162 -149 -162 -259c0 -74 18 -133 36 -194
c80 97 146 198 146 324c0 55 -4 79 -20 129z" fill="currentColor"/>
<a style="color:inherit;" xlink:href="textedit:///Users/jyang/Documents/GitHub/dstyge/dstyge_kit.ly:16:10:11">
<g transform="translate(9.6220, 22.9446)" >
<path transform="scale(0.0040, -0.0040)" d="M253 245l-50 -163c-30 -99 -121 -255 -218 -255c-45 0 -87 27 -87 69c0 39 17 77 52 77c24 0 44 -20 44 -44c0 -30 -38 -24 -38 -54c0 -10 11 -11 23 -11h6c48 0 61 58 73 108l68 273h-49c-11 0 -19 8 -19 19s8 19 19 19h60c32 96 118 191 213 191c45 0 87 -27 87 -69
c0 -39 -17 -77 -52 -77c-24 0 -44 19 -44 43c0 30 38 25 38 55c0 10 -10 11 -22 11h-7c-62 0 -70 -88 -86 -154h55c11 0 19 -8 19 -19s-8 -19 -19 -19h-66z" fill="currentColor"/>

<path transform="translate(1.2633, 0.0000) scale(0.0040, -0.0040)" d="M253 245l-50 -163c-30 -99 -121 -255 -218 -255c-45 0 -87 27 -87 69c0 39 17 77 52 77c24 0 44 -20 44 -44c0 -30 -38 -24 -38 -54c0 -10 11 -11 23 -11h6c48 0 61 58 73 108l68 273h-49c-11 0 -19 8 -19 19s8 19 19 19h60c32 96 118 191 213 191c45 0 87 -27 87 -69
c0 -39 -17 -77 -52 -77c-24 0 -44 19 -44 43c0 30 38 25 38 55c0 10 -10 11 -22 11h-7c-62 0 -70 -88 -86 -154h55c11 0 19 -8 19 -19s-8 -19 -19 -19h-66z" fill="currentColor"/>

<path transform="translate(2.5266, 0.0000) scale(0.0040, -0.0040)" d="M253 245l-50 -163c-30 -99 -121 -255 -218 -255c-45 0 -87 27 -87 69c0 39 17 77 52 77c24 0 44 -20 44 -44c0 -30 -38 -24 -38 -54c0 -10 11 -11 23 -11h6c48 0 61 58 73 108l68 273h-49c-11 0 -19 8 -19 19s8 19 19 19h60c32 96 118 191 213 191c45 0 87 -27 87 -69
c0 -39 -17 -77 -52 -77c-24 0 -44 19 -44 43c0 30 38 25 38 55c0 10 -10 11 -22 11h-7c-62 0 -70 -88 -86 -154h55c11 0 19 -8 19 -19s-8 -19 -19 -19h-66z" fill="currentColor"/>

<path transform="translate(3.7899, 0.0000) scale(0.0040, -0.0040)" d="M253 245l-50 -163c-30 -99 -121 -255 -218 -255c-45 0 -87 27 -87 69c0 39 17 77 52 77c24 0 44 -20 44 -44c0 -30 -38 -24 -38 -54c0 -10 11 -11 23 -11h6c48 0 61 58 73 108l68 273h-49c-11 0 -19 8 -19 19s8 19 19 19h60c32 96 118 191 213 191c45 0 87 -27 87 -69
c0 -39 -17 -77 -52 -77c-24 0 -44 19 -44 43c0 30 38 25 38 55c0 10 -10 11 -22 11h-7c-62 0 -70 -88 -86 -154h55c11 0 19 -8 19 -19s-8 -19 -19 -19h-66z" fill="currentColor"/>
</g>
</a>
<a style="color:inherit;" xlink:href="textedit:///Users/jyang/Documents/GitHub/dstyge/dstyge_kit.ly:16:6:7">
<path transform="translate(11.4906, 19.8826) scale(0.0040, -0.0040)" d="M220 138c56 0 109 -29 109 -91c0 -72 -56 -121 -103 -149c-36 -21 -76 -36 -117 -36c-56 0 -109 29 -109 91c0 72 56 121 103 149c36 21 76 36 117 36z" fill="currentColor"/>
</a>
<rect transform="translate(31.5265, 9.8826)" x="-0.0650" y="-0.0000" width="0.1300" height="9.3122" ry="0.0400" fill="currentColor"/>
<a style="color:inherit;" xlink:href="textedit:///Users/jyang/Documents/GitHub/dstyge/dstyge_kit.ly:16:35:36">
<path transform="translate(30.2754, 19.3826) scale(0.0040, -0.0040)" d="M220 138c56 0 109 -29 109 -91c0 -72 -56 -121 -103 -149c-36 -21 -76 -36 -117 -36c-56 0 -109 29 -109 91c0 72 56 121 103 149c36 21 76 36 117 36z" fill="currentColor"/>
</a>
<a transform="translate(113.9760, 165.1512)" xlink:href="http://lilypond.org/">
<rect x="0.0000" y="-0.4439" width="56.5755" height="2.0827" fill="none" stroke="none" stroke-width="0.0"/>
</a>
<text transform="translate(113.9760, 165.1512)" font-family="Century Schoolbook L" font-size="2.2001" text-anchor="start" fill="currentColor">
<tspan>
Music engraving by LilyPond 2.18.2—www.lilypond.org</tspan>
</text>
</svg>
