<svg xmlns="http://www.w3.org/2000/svg" xmlns:xlink="http://www.w3.org/1999/xlink" version="1.2" width="500.00mm" height="297.00mm" viewBox="0 0 284.5276 169.0094">
<!-- Page: 1/1 -->
<text transform="translate(5.6906, 2.8453)" font-family="Century Schoolbook L" font-size="2.2001" text-anchor="start" fill="currentColor">
<tspan>
 </tspan>
</text>
<line transform="translate(5.6906, 7.2753)" stroke-linejoin="round" stroke-linecap="round" stroke-width="0.1000" stroke="currentColor" x1="0.0500" y1="-0.0000" x2="28.4028" y2="-0.0000"/>
<rect transform="translate(33.9533, 7.2753)" x="0.0000" y="-1.0500" width="0.1900" height="2.1000" ry="0.0000" fill="currentColor"/>
<rect transform="translate(26.9988, 7.2753)" x="-0.0650" y="-3.1900" width="0.1300" height="3.0022" ry="0.0400" fill="currentColor"/>
<a style="color:inherit;" xlink:href="textedit:///Users/jyang/Documents/GitHub/dstyge/notation/dstyge_bottles_perc.ly:14:40:41">
<path transform="translate(25.7477, 7.2753) scale(0.0040, -0.0040)" d="M220 138c56 0 109 -29 109 -91c0 -72 -56 -121 -103 -149c-36 -21 -76 -36 -117 -36c-56 0 -109 29 -109 91c0 72 56 121 103 149c36 21 76 36 117 36z" fill="currentColor"/>
</a>
<rect transform="translate(11.6417, 7.2753)" x="-0.0650" y="-3.1900" width="0.1300" height="3.0022" ry="0.0400" fill="currentColor"/>
<rect transform="translate(23.4516, 7.2753)" x="-0.0650" y="-3.1900" width="0.1300" height="3.0022" ry="0.0400" fill="currentColor"/>
<path transform="translate(23.9666, 6.7753) scale(0.0040, -0.0040)" d="M0 0c0 31 25 56 56 56s56 -25 56 -56s-25 -56 -56 -56s-56 25 -56 56z" fill="currentColor"/>
<a style="color:inherit;" xlink:href="textedit:///Users/jyang/Documents/GitHub/dstyge/notation/dstyge_bottles_perc.ly:14:33:34">
<path transform="translate(22.2004, 7.2753) scale(0.0040, -0.0040)" d="M220 138c56 0 109 -29 109 -91c0 -72 -56 -121 -103 -149c-36 -21 -76 -36 -117 -36c-56 0 -109 29 -109 91c0 72 56 121 103 149c36 21 76 36 117 36z" fill="currentColor"/>
</a>
<polygon transform="translate(11.5767, 4.0853)" stroke-linejoin="round" stroke-linecap="round" stroke-width="0.0800" fill="currentColor" stroke="currentColor" points="3.6372 -0.2000 3.6372 0.2000 0.0400 0.2000 0.0400 -0.2000"/>
<polygon transform="translate(14.0890, 4.8953)" stroke-linejoin="round" stroke-linecap="round" stroke-width="0.0800" fill="currentColor" stroke="currentColor" points="1.1250 -0.2000 1.1250 0.2000 0.0400 0.2000 0.0400 -0.2000"/>
<polygon transform="translate(23.3866, 4.0853)" stroke-linejoin="round" stroke-linecap="round" stroke-width="0.0800" fill="currentColor" stroke="currentColor" points="3.6372 -0.2000 3.6372 0.2000 0.0400 0.2000 0.0400 -0.2000"/>
<polygon transform="translate(25.8988, 4.8953)" stroke-linejoin="round" stroke-linecap="round" stroke-width="0.0800" fill="currentColor" stroke="currentColor" points="1.1250 -0.2000 1.1250 0.2000 0.0400 0.2000 0.0400 -0.2000"/>
<path transform="translate(32.0197, 3.9403) scale(0.0040, -0.0040)" d="M0 0c0 -198 209 -335 209 -533c0 -71 -16 -141 -42 -207c-5 -8 -12 -12 -19 -12c-13 0 -26 11 -23 27c26 61 42 126 42 192c0 104 -95 208 -167 283h-16v250h16z" fill="currentColor"/>
<rect transform="translate(31.9547, 7.2753)" x="-0.0650" y="-3.3750" width="0.1300" height="3.1872" ry="0.0400" fill="currentColor"/>
<a style="color:inherit;" xlink:href="textedit:///Users/jyang/Documents/GitHub/dstyge/notation/dstyge_bottles_perc.ly:14:50:51">
<path transform="translate(30.7035, 7.2753) scale(0.0040, -0.0040)" d="M220 138c56 0 109 -29 109 -91c0 -72 -56 -121 -103 -149c-36 -21 -76 -36 -117 -36c-56 0 -109 29 -109 91c0 72 56 121 103 149c36 21 76 36 117 36z" fill="currentColor"/>
</a>
<a style="color:inherit;" xlink:href="textedit:///Users/jyang/Documents/GitHub/dstyge/notation/dstyge_bottles_perc.ly:14:47:48">
<path transform="translate(27.9637, 7.2753) scale(0.0040, -0.0040)" d="M72 -250l117 326c-34 -12 -69 -22 -105 -22c-46 0 -87 33 -87 79c0 40 33 72 73 72c25 0 48 -15 56 -39c10 -28 6 -59 35 -59c16 0 54 48 61 63c6 12 23 12 28 0l-123 -420c-8 -7 -17 -10 -27 -10s-20 3 -28 10z" fill="currentColor"/>
</a>
<a style="color:inherit;" xlink:href="textedit:///Users/jyang/Documents/GitHub/dstyge/notation/dstyge_bottles_perc.ly:14:13:14">
<path transform="translate(13.9378, 7.2753) scale(0.0040, -0.0040)" d="M220 138c56 0 109 -29 109 -91c0 -72 -56 -121 -103 -149c-36 -21 -76 -36 -117 -36c-56 0 -109 29 -109 91c0 72 56 121 103 149c36 21 76 36 117 36z" fill="currentColor"/>
</a>
<rect transform="translate(15.1890, 7.2753)" x="-0.0650" y="-3.1900" width="0.1300" height="3.0022" ry="0.0400" fill="currentColor"/>
<a style="color:inherit;" xlink:href="textedit:///Users/jyang/Documents/GitHub/dstyge/notation/dstyge_bottles_perc.ly:14:6:7">
<path transform="translate(10.3905, 7.2753) scale(0.0040, -0.0040)" d="M220 138c56 0 109 -29 109 -91c0 -72 -56 -121 -103 -149c-36 -21 -76 -36 -117 -36c-56 0 -109 29 -109 91c0 72 56 121 103 149c36 21 76 36 117 36z" fill="currentColor"/>
</a>
<path transform="translate(6.6906, 7.2753) scale(0.0040, -0.0040)" d="M359 27c-49 0 -75 42 -75 75c0 38 27 77 72 77c4 0 9 0 14 -1c-28 37 -72 59 -120 59c-106 0 -113 -73 -113 -186v-51v-51c0 -113 7 -187 113 -187c80 0 139 70 158 151c2 7 7 10 12 10c6 0 13 -4 13 -12c0 -94 -105 -174 -183 -174c-68 0 -137 21 -184 70
c-49 51 -66 122 -66 193s17 142 66 193c47 49 116 69 184 69c87 0 160 -64 175 -150c1 -5 1 -9 1 -13c0 -40 -30 -72 -67 -72z" fill="currentColor"/>
<a style="color:inherit;" xlink:href="textedit:///Users/jyang/Documents/GitHub/dstyge/notation/dstyge_bottles_perc.ly:14:20:21">
<path transform="translate(16.1538, 7.2753) scale(0.0040, -0.0040)" d="M72 -250l117 326c-34 -12 -69 -22 -105 -22c-46 0 -87 33 -87 79c0 40 33 72 73 72c25 0 48 -15 56 -39c10 -28 6 -59 35 -59c16 0 54 48 61 63c6 12 23 12 28 0l-123 -420c-8 -7 -17 -10 -27 -10s-20 3 -28 10z" fill="currentColor"/>
</a>
<path transform="translate(12.1567, 6.7753) scale(0.0040, -0.0040)" d="M0 0c0 31 25 56 56 56s56 -25 56 -56s-25 -56 -56 -56s-56 25 -56 56z" fill="currentColor"/>
<path transform="translate(20.2098, 3.9403) scale(0.0040, -0.0040)" d="M0 0c0 -198 209 -335 209 -533c0 -71 -16 -141 -42 -207c-5 -8 -12 -12 -19 -12c-13 0 -26 11 -23 27c26 61 42 126 42 192c0 104 -95 208 -167 283h-16v250h16z" fill="currentColor"/>
<rect transform="translate(20.1448, 7.2753)" x="-0.0650" y="-3.3750" width="0.1300" height="3.1872" ry="0.0400" fill="currentColor"/>
<a style="color:inherit;" xlink:href="textedit:///Users/jyang/Documents/GitHub/dstyge/notation/dstyge_bottles_perc.ly:14:23:24">
<path transform="translate(18.8936, 7.2753) scale(0.0040, -0.0040)" d="M220 138c56 0 109 -29 109 -91c0 -72 -56 -121 -103 -149c-36 -21 -76 -36 -117 -36c-56 0 -109 29 -109 91c0 72 56 121 103 149c36 21 76 36 117 36z" fill="currentColor"/>
</a>
<line transform="translate(5.6906, 19.2753)" stroke-linejoin="round" stroke-linecap="round" stroke-width="0.1000" stroke="currentColor" x1="0.0500" y1="-0.0000" x2="28.4028" y2="-0.0000"/>
<rect transform="translate(33.9533, 19.2753)" x="0.0000" y="-1.0500" width="0.1900" height="2.1000" ry="0.0000" fill="currentColor"/>
<a style="color:inherit;" xlink:href="textedit:///Users/jyang/Documents/GitHub/dstyge/notation/dstyge_bottles_perc.ly:14:93:94">
<path transform="translate(23.1617, 19.2753) scale(0.0040, -0.0040)" d="M66 -500l101 327c-34 -12 -70 -23 -106 -23c-46 0 -87 33 -87 79c0 40 32 72 72 72c25 0 49 -15 57 -39c10 -28 5 -59 34 -59c16 0 55 51 60 68l46 151c-34 -12 -68 -22 -104 -22c-46 0 -87 33 -87 79c0 40 33 72 73 72c25 0 48 -15 56 -39c10 -28 5 -59 34 -59
c15 0 50 49 57 63c6 12 23 12 28 0l-179 -670c-8 -7 -17 -10 -27 -10s-20 3 -28 10z" fill="currentColor"/>
</a>
<path transform="translate(21.8757, 15.9403) scale(0.0040, -0.0040)" d="M0 0c0 -178 203 -292 203 -470c0 -33 -9 -65 -23 -95c18 -37 29 -75 29 -117c0 -63 -16 -125 -42 -183c-5 -8 -12 -12 -19 -12c-13 0 -26 11 -23 27c26 52 42 110 42 168c0 97 -95 191 -167 257v-75h-16v500h16zM153 -517c5 15 7 31 7 47c0 96 -91 190 -160 257
c0 -118 91 -206 153 -304z" fill="currentColor"/>
<rect transform="translate(21.8107, 19.2753)" x="-0.0650" y="-3.3750" width="0.1300" height="3.1872" ry="0.0400" fill="currentColor"/>
<a style="color:inherit;" xlink:href="textedit:///Users/jyang/Documents/GitHub/dstyge/notation/dstyge_bottles_perc.ly:14:88:89">
<path transform="translate(20.5595, 19.2753) scale(0.0040, -0.0040)" d="M220 138c56 0 109 -29 109 -91c0 -72 -56 -121 -103 -149c-36 -21 -76 -36 -117 -36c-56 0 -109 29 -109 91c0 72 56 121 103 149c36 21 76 36 117 36z" fill="currentColor"/>
</a>
<a style="color:inherit;" xlink:href="textedit:///Users/jyang/Documents/GitHub/dstyge/notation/dstyge_bottles_perc.ly:14:84:85">
<path transform="translate(18.4645, 19.2753) scale(0.0040, -0.0040)" d="M66 -500l101 327c-34 -12 -70 -23 -106 -23c-46 0 -87 33 -87 79c0 40 32 72 72 72c25 0 49 -15 57 -39c10 -28 5 -59 34 -59c16 0 55 51 60 68l46 151c-34 -12 -68 -22 -104 -22c-46 0 -87 33 -87 79c0 40 33 72 73 72c25 0 48 -15 56 -39c10 -28 5 -59 34 -59
c15 0 50 49 57 63c6 12 23 12 28 0l-179 -670c-8 -7 -17 -10 -27 -10s-20 3 -28 10z" fill="currentColor"/>
</a>
<path transform="translate(16.4804, 15.9403) scale(0.0040, -0.0040)" d="M0 0c0 -198 209 -335 209 -533c0 -71 -16 -141 -42 -207c-5 -8 -12 -12 -19 -12c-13 0 -26 11 -23 27c26 61 42 126 42 192c0 104 -95 208 -167 283h-16v250h16z" fill="currentColor"/>
<rect transform="translate(16.4154, 19.2753)" x="-0.0650" y="-3.3750" width="0.1300" height="3.1872" ry="0.0400" fill="currentColor"/>
<a style="color:inherit;" xlink:href="textedit:///Users/jyang/Documents/GitHub/dstyge/notation/dstyge_bottles_perc.ly:14:75:76">
<path transform="translate(15.1642, 19.2753) scale(0.0040, -0.0040)" d="M220 138c56 0 109 -29 109 -91c0 -72 -56 -121 -103 -149c-36 -21 -76 -36 -117 -36c-56 0 -109 29 -109 91c0 72 56 121 103 149c36 21 76 36 117 36z" fill="currentColor"/>
</a>
<polygon transform="translate(7.8767, 16.0853)" stroke-linejoin="round" stroke-linecap="round" stroke-width="0.0800" fill="currentColor" stroke="currentColor" points="3.6232 -0.2000 3.6232 0.2000 0.0400 0.2000 0.0400 -0.2000"/>
<polygon transform="translate(10.3750, 16.8953)" stroke-linejoin="round" stroke-linecap="round" stroke-width="0.0800" fill="currentColor" stroke="currentColor" points="1.1250 -0.2000 1.1250 0.2000 0.0400 0.2000 0.0400 -0.2000"/>
<polygon transform="translate(29.0452, 16.2753)" stroke-linejoin="round" stroke-linecap="round" stroke-width="0.0800" fill="currentColor" stroke="currentColor" points="3.1353 -0.2000 3.1353 0.2000 0.0400 0.2000 0.0400 -0.2000"/>
<rect transform="translate(32.1555, 19.2753)" x="-0.0650" y="-3.0000" width="0.1300" height="2.8122" ry="0.0400" fill="currentColor"/>
<a style="color:inherit;" xlink:href="textedit:///Users/jyang/Documents/GitHub/dstyge/notation/dstyge_bottles_perc.ly:14:109:110">
<path transform="translate(30.9043, 19.2753) scale(0.0040, -0.0040)" d="M220 138c56 0 109 -29 109 -91c0 -72 -56 -121 -103 -149c-36 -21 -76 -36 -117 -36c-56 0 -109 29 -109 91c0 72 56 121 103 149c36 21 76 36 117 36z" fill="currentColor"/>
</a>
<rect transform="translate(29.1102, 19.2753)" x="-0.0650" y="-3.0000" width="0.1300" height="2.8122" ry="0.0400" fill="currentColor"/>
<a style="color:inherit;" xlink:href="textedit:///Users/jyang/Documents/GitHub/dstyge/notation/dstyge_bottles_perc.ly:14:103:104">
<path transform="translate(27.8590, 19.2753) scale(0.0040, -0.0040)" d="M220 138c56 0 109 -29 109 -91c0 -72 -56 -121 -103 -149c-36 -21 -76 -36 -117 -36c-56 0 -109 29 -109 91c0 72 56 121 103 149c36 21 76 36 117 36z" fill="currentColor"/>
</a>
<path transform="translate(26.5730, 15.9403) scale(0.0040, -0.0040)" d="M0 0c0 -178 203 -292 203 -470c0 -33 -9 -65 -23 -95c18 -37 29 -75 29 -117c0 -63 -16 -125 -42 -183c-5 -8 -12 -12 -19 -12c-13 0 -26 11 -23 27c26 52 42 110 42 168c0 97 -95 191 -167 257v-75h-16v500h16zM153 -517c5 15 7 31 7 47c0 96 -91 190 -160 257
c0 -118 91 -206 153 -304z" fill="currentColor"/>
<rect transform="translate(26.5080, 19.2753)" x="-0.0650" y="-3.3750" width="0.1300" height="3.1872" ry="0.0400" fill="currentColor"/>
<a style="color:inherit;" xlink:href="textedit:///Users/jyang/Documents/GitHub/dstyge/notation/dstyge_bottles_perc.ly:14:95:96">
<path transform="translate(25.2568, 19.2753) scale(0.0040, -0.0040)" d="M220 138c56 0 109 -29 109 -91c0 -72 -56 -121 -103 -149c-36 -21 -76 -36 -117 -36c-56 0 -109 29 -109 91c0 72 56 121 103 149c36 21 76 36 117 36z" fill="currentColor"/>
</a>
<rect transform="translate(7.9417, 19.2753)" x="-0.0650" y="-3.1900" width="0.1300" height="3.0022" ry="0.0400" fill="currentColor"/>
<path transform="translate(8.4567, 18.7753) scale(0.0040, -0.0040)" d="M0 0c0 31 25 56 56 56s56 -25 56 -56s-25 -56 -56 -56s-56 25 -56 56z" fill="currentColor"/>
<a style="color:inherit;" xlink:href="textedit:///Users/jyang/Documents/GitHub/dstyge/notation/dstyge_bottles_perc.ly:14:58:59">
<path transform="translate(6.6906, 19.2753) scale(0.0040, -0.0040)" d="M220 138c56 0 109 -29 109 -91c0 -72 -56 -121 -103 -149c-36 -21 -76 -36 -117 -36c-56 0 -109 29 -109 91c0 72 56 121 103 149c36 21 76 36 117 36z" fill="currentColor"/>
</a>
<text transform="translate(4.7345, 18.2253)" font-family="Century Schoolbook L" font-size="1.7461" text-anchor="start" fill="currentColor">
<tspan>
2</tspan>
</text>
<a style="color:inherit;" xlink:href="textedit:///Users/jyang/Documents/GitHub/dstyge/notation/dstyge_bottles_perc.ly:14:72:73">
<path transform="translate(12.4350, 19.2753) scale(0.0040, -0.0040)" d="M72 -250l117 326c-34 -12 -69 -22 -105 -22c-46 0 -87 33 -87 79c0 40 33 72 73 72c25 0 48 -15 56 -39c10 -28 6 -59 35 -59c16 0 54 48 61 63c6 12 23 12 28 0l-123 -420c-8 -7 -17 -10 -27 -10s-20 3 -28 10z" fill="currentColor"/>
</a>
<rect transform="translate(11.4750, 19.2753)" x="-0.0650" y="-3.1900" width="0.1300" height="3.0022" ry="0.0400" fill="currentColor"/>
<a style="color:inherit;" xlink:href="textedit:///Users/jyang/Documents/GitHub/dstyge/notation/dstyge_bottles_perc.ly:14:65:66">
<path transform="translate(10.2238, 19.2753) scale(0.0040, -0.0040)" d="M220 138c56 0 109 -29 109 -91c0 -72 -56 -121 -103 -149c-36 -21 -76 -36 -117 -36c-56 0 -109 29 -109 91c0 72 56 121 103 149c36 21 76 36 117 36z" fill="currentColor"/>
</a>
<a transform="translate(113.9760, 165.1512)" xlink:href="http://lilypond.org/">
<rect x="0.0000" y="-0.4439" width="56.5755" height="2.0827" fill="none" stroke="none" stroke-width="0.0"/>
</a>
<text transform="translate(113.9760, 165.1512)" font-family="Century Schoolbook L" font-size="2.2001" text-anchor="start" fill="currentColor">
<tspan>
Music engraving by LilyPond 2.18.2—www.lilypond.org</tspan>
</text>
</svg>
